<?xml version="1.0" encoding="UTF-8" standalone="no"?><svg xmlns="http://www.w3.org/2000/svg" xmlns:xlink="http://www.w3.org/1999/xlink" contentScriptType="application/ecmascript" contentStyleType="text/css" height="971px" preserveAspectRatio="none" style="width:902px;height:971px;" version="1.1" viewBox="0 0 902 971" width="902px" zoomAndPan="magnify"><defs><filter height="300%" id="fff9qf3jlitye" width="300%" x="-1" y="-1"><feGaussianBlur result="blurOut" stdDeviation="2.0"/><feColorMatrix in="blurOut" result="blurOut2" type="matrix" values="0 0 0 0 0 0 0 0 0 0 0 0 0 0 0 0 0 0 .4 0"/><feOffset dx="4.0" dy="4.0" in="blurOut2" result="blurOut3"/><feBlend in="SourceGraphic" in2="blurOut3" mode="normal"/></filter></defs><g><!--MD5=[3fd616f346a44cd59a91eb10b19e157c]
class User--><rect fill="#FEFECE" filter="url(#fff9qf3jlitye)" height="116.8281" id="User" style="stroke: #A80036; stroke-width: 1.5;" width="143" x="54.5" y="451.5"/><ellipse cx="107.25" cy="467.5" fill="#ADD1B2" rx="11" ry="11" style="stroke: #A80036; stroke-width: 1.0;"/><path d="M110.2188,473.1406 Q109.6406,473.4375 109,473.5781 Q108.3594,473.7344 107.6563,473.7344 Q105.1563,473.7344 103.8281,472.0938 Q102.5156,470.4375 102.5156,467.3125 Q102.5156,464.1875 103.8281,462.5313 Q105.1563,460.875 107.6563,460.875 Q108.3594,460.875 109,461.0313 Q109.6563,461.1875 110.2188,461.4844 L110.2188,464.2031 Q109.5938,463.625 109,463.3594 Q108.4063,463.0781 107.7813,463.0781 Q106.4375,463.0781 105.75,464.1563 Q105.0625,465.2188 105.0625,467.3125 Q105.0625,469.4063 105.75,470.4844 Q106.4375,471.5469 107.7813,471.5469 Q108.4063,471.5469 109,471.2813 Q109.5938,471 110.2188,470.4219 L110.2188,473.1406 Z "/><text fill="#000000" font-family="sans-serif" font-size="12" lengthAdjust="spacingAndGlyphs" textLength="29" x="127.75" y="471.6543">User</text><line style="stroke: #A80036; stroke-width: 1.5;" x1="55.5" x2="196.5" y1="483.5" y2="483.5"/><ellipse cx="65.5" cy="494.5" fill="none" rx="3" ry="3" style="stroke: #038048; stroke-width: 1.0;"/><text fill="#000000" font-family="sans-serif" font-size="11" lengthAdjust="spacingAndGlyphs" textLength="48" x="74.5" y="497.7104">String id</text><ellipse cx="65.5" cy="507.3047" fill="none" rx="3" ry="3" style="stroke: #038048; stroke-width: 1.0;"/><text fill="#000000" font-family="sans-serif" font-size="11" lengthAdjust="spacingAndGlyphs" textLength="77" x="74.5" y="510.5151">String picture</text><ellipse cx="65.5" cy="520.1094" fill="none" rx="3" ry="3" style="stroke: #038048; stroke-width: 1.0;"/><text fill="#000000" font-family="sans-serif" font-size="11" lengthAdjust="spacingAndGlyphs" textLength="117" x="74.5" y="523.3198">String memberSince</text><ellipse cx="65.5" cy="532.9141" fill="none" rx="3" ry="3" style="stroke: #038048; stroke-width: 1.0;"/><text fill="#000000" font-family="sans-serif" font-size="11" lengthAdjust="spacingAndGlyphs" textLength="68" x="74.5" y="536.1245">int following</text><ellipse cx="65.5" cy="545.7188" fill="none" rx="3" ry="3" style="stroke: #038048; stroke-width: 1.0;"/><text fill="#000000" font-family="sans-serif" font-size="11" lengthAdjust="spacingAndGlyphs" textLength="70" x="74.5" y="548.9292">int followers</text><ellipse cx="65.5" cy="558.5234" fill="none" rx="3" ry="3" style="stroke: #038048; stroke-width: 1.0;"/><text fill="#000000" font-family="sans-serif" font-size="11" lengthAdjust="spacingAndGlyphs" textLength="70" x="74.5" y="561.7339">String about</text><!--MD5=[042fa140da40c49659127f611bcff931]
class Comment--><rect fill="#FEFECE" filter="url(#fff9qf3jlitye)" height="129.6328" id="Comment" style="stroke: #A80036; stroke-width: 1.5;" width="114" x="6" y="8"/><ellipse cx="31.35" cy="24" fill="#ADD1B2" rx="11" ry="11" style="stroke: #A80036; stroke-width: 1.0;"/><path d="M34.3188,29.6406 Q33.7406,29.9375 33.1,30.0781 Q32.4594,30.2344 31.7563,30.2344 Q29.2563,30.2344 27.9281,28.5938 Q26.6156,26.9375 26.6156,23.8125 Q26.6156,20.6875 27.9281,19.0313 Q29.2563,17.375 31.7563,17.375 Q32.4594,17.375 33.1,17.5313 Q33.7563,17.6875 34.3188,17.9844 L34.3188,20.7031 Q33.6938,20.125 33.1,19.8594 Q32.5063,19.5781 31.8813,19.5781 Q30.5375,19.5781 29.85,20.6563 Q29.1625,21.7188 29.1625,23.8125 Q29.1625,25.9063 29.85,26.9844 Q30.5375,28.0469 31.8813,28.0469 Q32.5063,28.0469 33.1,27.7813 Q33.6938,27.5 34.3188,26.9219 L34.3188,29.6406 Z "/><text fill="#000000" font-family="sans-serif" font-size="12" lengthAdjust="spacingAndGlyphs" textLength="59" x="47.65" y="28.1543">Comment</text><line style="stroke: #A80036; stroke-width: 1.5;" x1="7" x2="119" y1="40" y2="40"/><ellipse cx="17" cy="51" fill="none" rx="3" ry="3" style="stroke: #038048; stroke-width: 1.0;"/><text fill="#000000" font-family="sans-serif" font-size="11" lengthAdjust="spacingAndGlyphs" textLength="48" x="26" y="54.2104">String id</text><ellipse cx="17" cy="63.8047" fill="none" rx="3" ry="3" style="stroke: #038048; stroke-width: 1.0;"/><text fill="#000000" font-family="sans-serif" font-size="11" lengthAdjust="spacingAndGlyphs" textLength="88" x="26" y="67.0151">String shaderId</text><ellipse cx="17" cy="76.6094" fill="none" rx="3" ry="3" style="stroke: #038048; stroke-width: 1.0;"/><text fill="#000000" font-family="sans-serif" font-size="11" lengthAdjust="spacingAndGlyphs" textLength="74" x="26" y="79.8198">String userId</text><ellipse cx="17" cy="89.4141" fill="none" rx="3" ry="3" style="stroke: #038048; stroke-width: 1.0;"/><text fill="#000000" font-family="sans-serif" font-size="11" lengthAdjust="spacingAndGlyphs" textLength="77" x="26" y="92.6245">String picture</text><ellipse cx="17" cy="102.2188" fill="none" rx="3" ry="3" style="stroke: #038048; stroke-width: 1.0;"/><text fill="#000000" font-family="sans-serif" font-size="11" lengthAdjust="spacingAndGlyphs" textLength="83" x="26" y="105.4292">DateTime date</text><ellipse cx="17" cy="115.0234" fill="none" rx="3" ry="3" style="stroke: #038048; stroke-width: 1.0;"/><text fill="#000000" font-family="sans-serif" font-size="11" lengthAdjust="spacingAndGlyphs" textLength="59" x="26" y="118.2339">String text</text><ellipse cx="17" cy="127.8281" fill="none" rx="3" ry="3" style="stroke: #038048; stroke-width: 1.0;"/><text fill="#000000" font-family="sans-serif" font-size="11" lengthAdjust="spacingAndGlyphs" textLength="87" x="26" y="131.0386">boolean hidden</text><!--MD5=[03c346c7ea445837e8975099d55cba7e]
class ShaderPrivacy--><rect fill="#FEFECE" filter="url(#fff9qf3jlitye)" height="91.2188" id="ShaderPrivacy" style="stroke: #A80036; stroke-width: 1.5;" width="120" x="290" y="464.5"/><ellipse cx="305" cy="480.5" fill="#EB937F" rx="11" ry="11" style="stroke: #A80036; stroke-width: 1.0;"/><path d="M309.1094,486.5 L301.3906,486.5 L301.3906,474.1094 L309.1094,474.1094 L309.1094,476.2656 L303.8438,476.2656 L303.8438,478.9375 L308.6094,478.9375 L308.6094,481.0938 L303.8438,481.0938 L303.8438,484.3438 L309.1094,484.3438 L309.1094,486.5 Z "/><text fill="#000000" font-family="sans-serif" font-size="12" lengthAdjust="spacingAndGlyphs" textLength="88" x="319" y="484.6543">ShaderPrivacy</text><line style="stroke: #A80036; stroke-width: 1.5;" x1="291" x2="409" y1="496.5" y2="496.5"/><text fill="#000000" font-family="sans-serif" font-size="11" lengthAdjust="spacingAndGlyphs" textLength="39" x="296" y="510.7104">private</text><text fill="#000000" font-family="sans-serif" font-size="11" lengthAdjust="spacingAndGlyphs" textLength="45" x="296" y="523.5151">unlisted</text><text fill="#000000" font-family="sans-serif" font-size="11" lengthAdjust="spacingAndGlyphs" textLength="33" x="296" y="536.3198">public</text><text fill="#000000" font-family="sans-serif" font-size="11" lengthAdjust="spacingAndGlyphs" textLength="56" x="296" y="549.1245">public_api</text><!--MD5=[88dbfe8572c16244f15eec58f6037418]
class Info--><rect fill="#FEFECE" filter="url(#fff9qf3jlitye)" height="180.8516" id="Info" style="stroke: #A80036; stroke-width: 1.5;" width="151" x="332.5" y="198"/><ellipse cx="392.25" cy="214" fill="#ADD1B2" rx="11" ry="11" style="stroke: #A80036; stroke-width: 1.0;"/><path d="M395.2188,219.6406 Q394.6406,219.9375 394,220.0781 Q393.3594,220.2344 392.6563,220.2344 Q390.1563,220.2344 388.8281,218.5938 Q387.5156,216.9375 387.5156,213.8125 Q387.5156,210.6875 388.8281,209.0313 Q390.1563,207.375 392.6563,207.375 Q393.3594,207.375 394,207.5313 Q394.6563,207.6875 395.2188,207.9844 L395.2188,210.7031 Q394.5938,210.125 394,209.8594 Q393.4063,209.5781 392.7813,209.5781 Q391.4375,209.5781 390.75,210.6563 Q390.0625,211.7188 390.0625,213.8125 Q390.0625,215.9063 390.75,216.9844 Q391.4375,218.0469 392.7813,218.0469 Q393.4063,218.0469 394,217.7813 Q394.5938,217.5 395.2188,216.9219 L395.2188,219.6406 Z "/><text fill="#000000" font-family="sans-serif" font-size="12" lengthAdjust="spacingAndGlyphs" textLength="23" x="412.75" y="218.1543">Info</text><line style="stroke: #A80036; stroke-width: 1.5;" x1="333.5" x2="482.5" y1="230" y2="230"/><ellipse cx="343.5" cy="241" fill="none" rx="3" ry="3" style="stroke: #038048; stroke-width: 1.0;"/><text fill="#000000" font-family="sans-serif" font-size="11" lengthAdjust="spacingAndGlyphs" textLength="48" x="352.5" y="244.2104">String id</text><ellipse cx="343.5" cy="253.8047" fill="none" rx="3" ry="3" style="stroke: #038048; stroke-width: 1.0;"/><text fill="#000000" font-family="sans-serif" font-size="11" lengthAdjust="spacingAndGlyphs" textLength="83" x="352.5" y="257.0151">DateTime date</text><ellipse cx="343.5" cy="266.6094" fill="none" rx="3" ry="3" style="stroke: #038048; stroke-width: 1.0;"/><text fill="#000000" font-family="sans-serif" font-size="11" lengthAdjust="spacingAndGlyphs" textLength="50" x="352.5" y="269.8198">int views</text><ellipse cx="343.5" cy="279.4141" fill="none" rx="3" ry="3" style="stroke: #038048; stroke-width: 1.0;"/><text fill="#000000" font-family="sans-serif" font-size="11" lengthAdjust="spacingAndGlyphs" textLength="70" x="352.5" y="282.6245">String name</text><ellipse cx="343.5" cy="292.2188" fill="none" rx="3" ry="3" style="stroke: #038048; stroke-width: 1.0;"/><text fill="#000000" font-family="sans-serif" font-size="11" lengthAdjust="spacingAndGlyphs" textLength="74" x="352.5" y="295.4292">String userId</text><ellipse cx="343.5" cy="305.0234" fill="none" rx="3" ry="3" style="stroke: #038048; stroke-width: 1.0;"/><text fill="#000000" font-family="sans-serif" font-size="11" lengthAdjust="spacingAndGlyphs" textLength="101" x="352.5" y="308.2339">String description</text><ellipse cx="343.5" cy="317.8281" fill="none" rx="3" ry="3" style="stroke: #038048; stroke-width: 1.0;"/><text fill="#000000" font-family="sans-serif" font-size="11" lengthAdjust="spacingAndGlyphs" textLength="44" x="352.5" y="321.0386">int likes</text><ellipse cx="343.5" cy="330.6328" fill="none" rx="3" ry="3" style="stroke: #038048; stroke-width: 1.0;"/><text fill="#000000" font-family="sans-serif" font-size="11" lengthAdjust="spacingAndGlyphs" textLength="125" x="352.5" y="333.8433">ShaderPrivacy privacy</text><ellipse cx="343.5" cy="343.4375" fill="none" rx="3" ry="3" style="stroke: #038048; stroke-width: 1.0;"/><text fill="#000000" font-family="sans-serif" font-size="11" lengthAdjust="spacingAndGlyphs" textLength="46" x="352.5" y="346.6479">int flags</text><ellipse cx="343.5" cy="356.2422" fill="none" rx="3" ry="3" style="stroke: #038048; stroke-width: 1.0;"/><text fill="#000000" font-family="sans-serif" font-size="11" lengthAdjust="spacingAndGlyphs" textLength="101" x="352.5" y="359.4526">List&lt;String&gt; tags</text><ellipse cx="343.5" cy="369.0469" fill="none" rx="3" ry="3" style="stroke: #038048; stroke-width: 1.0;"/><text fill="#000000" font-family="sans-serif" font-size="11" lengthAdjust="spacingAndGlyphs" textLength="78" x="352.5" y="372.2573">bool hasLiked</text><!--MD5=[a936fc4126fe56f190c56d68d827f6b3]
class FilterType--><rect fill="#FEFECE" filter="url(#fff9qf3jlitye)" height="91.2188" id="FilterType" style="stroke: #A80036; stroke-width: 1.5;" width="92" x="342" y="869"/><ellipse cx="357" cy="885" fill="#EB937F" rx="11" ry="11" style="stroke: #A80036; stroke-width: 1.0;"/><path d="M361.1094,891 L353.3906,891 L353.3906,878.6094 L361.1094,878.6094 L361.1094,880.7656 L355.8438,880.7656 L355.8438,883.4375 L360.6094,883.4375 L360.6094,885.5938 L355.8438,885.5938 L355.8438,888.8438 L361.1094,888.8438 L361.1094,891 Z "/><text fill="#000000" font-family="sans-serif" font-size="12" lengthAdjust="spacingAndGlyphs" textLength="60" x="371" y="889.1543">FilterType</text><line style="stroke: #A80036; stroke-width: 1.5;" x1="343" x2="433" y1="901" y2="901"/><text fill="#000000" font-family="sans-serif" font-size="11" lengthAdjust="spacingAndGlyphs" textLength="28" x="348" y="915.2104">none</text><text fill="#000000" font-family="sans-serif" font-size="11" lengthAdjust="spacingAndGlyphs" textLength="44" x="348" y="928.0151">nearest</text><text fill="#000000" font-family="sans-serif" font-size="11" lengthAdjust="spacingAndGlyphs" textLength="32" x="348" y="940.8198">linear</text><text fill="#000000" font-family="sans-serif" font-size="11" lengthAdjust="spacingAndGlyphs" textLength="46" x="348" y="953.6245">mipmap</text><!--MD5=[87ced7e318cf233d499af00967daf86d]
class WrapType--><rect fill="#FEFECE" filter="url(#fff9qf3jlitye)" height="91.2188" id="WrapType" style="stroke: #A80036; stroke-width: 1.5;" width="93" x="469.5" y="869"/><ellipse cx="484.5" cy="885" fill="#EB937F" rx="11" ry="11" style="stroke: #A80036; stroke-width: 1.0;"/><path d="M488.6094,891 L480.8906,891 L480.8906,878.6094 L488.6094,878.6094 L488.6094,880.7656 L483.3438,880.7656 L483.3438,883.4375 L488.1094,883.4375 L488.1094,885.5938 L483.3438,885.5938 L483.3438,888.8438 L488.6094,888.8438 L488.6094,891 Z "/><text fill="#000000" font-family="sans-serif" font-size="12" lengthAdjust="spacingAndGlyphs" textLength="61" x="498.5" y="889.1543">WrapType</text><line style="stroke: #A80036; stroke-width: 1.5;" x1="470.5" x2="561.5" y1="901" y2="901"/><text fill="#000000" font-family="sans-serif" font-size="11" lengthAdjust="spacingAndGlyphs" textLength="28" x="475.5" y="915.2104">none</text><text fill="#000000" font-family="sans-serif" font-size="11" lengthAdjust="spacingAndGlyphs" textLength="34" x="475.5" y="928.0151">clamp</text><text fill="#000000" font-family="sans-serif" font-size="11" lengthAdjust="spacingAndGlyphs" textLength="37" x="475.5" y="940.8198">repeat</text><text fill="#000000" font-family="sans-serif" font-size="11" lengthAdjust="spacingAndGlyphs" textLength="36" x="475.5" y="953.6245">mirror</text><!--MD5=[c1863ae7a83f0d4114d1dc5ffc6f27df]
class Sampler--><rect fill="#FEFECE" filter="url(#fff9qf3jlitye)" height="104.0234" id="Sampler" style="stroke: #A80036; stroke-width: 1.5;" width="113" x="395.5" y="673"/><ellipse cx="424" cy="689" fill="#ADD1B2" rx="11" ry="11" style="stroke: #A80036; stroke-width: 1.0;"/><path d="M426.9688,694.6406 Q426.3906,694.9375 425.75,695.0781 Q425.1094,695.2344 424.4063,695.2344 Q421.9063,695.2344 420.5781,693.5938 Q419.2656,691.9375 419.2656,688.8125 Q419.2656,685.6875 420.5781,684.0313 Q421.9063,682.375 424.4063,682.375 Q425.1094,682.375 425.75,682.5313 Q426.4063,682.6875 426.9688,682.9844 L426.9688,685.7031 Q426.3438,685.125 425.75,684.8594 Q425.1563,684.5781 424.5313,684.5781 Q423.1875,684.5781 422.5,685.6563 Q421.8125,686.7188 421.8125,688.8125 Q421.8125,690.9063 422.5,691.9844 Q423.1875,693.0469 424.5313,693.0469 Q425.1563,693.0469 425.75,692.7813 Q426.3438,692.5 426.9688,691.9219 L426.9688,694.6406 Z "/><text fill="#000000" font-family="sans-serif" font-size="12" lengthAdjust="spacingAndGlyphs" textLength="51" x="441" y="693.1543">Sampler</text><line style="stroke: #A80036; stroke-width: 1.5;" x1="396.5" x2="507.5" y1="705" y2="705"/><ellipse cx="406.5" cy="716" fill="none" rx="3" ry="3" style="stroke: #038048; stroke-width: 1.0;"/><text fill="#000000" font-family="sans-serif" font-size="11" lengthAdjust="spacingAndGlyphs" textLength="85" x="415.5" y="719.2104">FilterType filter</text><ellipse cx="406.5" cy="728.8047" fill="none" rx="3" ry="3" style="stroke: #038048; stroke-width: 1.0;"/><text fill="#000000" font-family="sans-serif" font-size="11" lengthAdjust="spacingAndGlyphs" textLength="87" x="415.5" y="732.0151">WrapType wrap</text><ellipse cx="406.5" cy="741.6094" fill="none" rx="3" ry="3" style="stroke: #038048; stroke-width: 1.0;"/><text fill="#000000" font-family="sans-serif" font-size="11" lengthAdjust="spacingAndGlyphs" textLength="51" x="415.5" y="744.8198">bool vflip</text><ellipse cx="406.5" cy="754.4141" fill="none" rx="3" ry="3" style="stroke: #038048; stroke-width: 1.0;"/><text fill="#000000" font-family="sans-serif" font-size="11" lengthAdjust="spacingAndGlyphs" textLength="54" x="415.5" y="757.6245">bool srgb</text><ellipse cx="406.5" cy="767.2188" fill="none" rx="3" ry="3" style="stroke: #038048; stroke-width: 1.0;"/><text fill="#000000" font-family="sans-serif" font-size="11" lengthAdjust="spacingAndGlyphs" textLength="81" x="415.5" y="770.4292">String internal</text><!--MD5=[d5414fa6b3869297190d3cd56d6ad7a9]
class InputType--><rect fill="#FEFECE" filter="url(#fff9qf3jlitye)" height="168.0469" id="InputType" style="stroke: #A80036; stroke-width: 1.5;" width="93" x="543.5" y="641"/><ellipse cx="558.5" cy="657" fill="#EB937F" rx="11" ry="11" style="stroke: #A80036; stroke-width: 1.0;"/><path d="M562.6094,663 L554.8906,663 L554.8906,650.6094 L562.6094,650.6094 L562.6094,652.7656 L557.3438,652.7656 L557.3438,655.4375 L562.1094,655.4375 L562.1094,657.5938 L557.3438,657.5938 L557.3438,660.8438 L562.6094,660.8438 L562.6094,663 Z "/><text fill="#000000" font-family="sans-serif" font-size="12" lengthAdjust="spacingAndGlyphs" textLength="61" x="572.5" y="661.1543">InputType</text><line style="stroke: #A80036; stroke-width: 1.5;" x1="544.5" x2="635.5" y1="673" y2="673"/><text fill="#000000" font-family="sans-serif" font-size="11" lengthAdjust="spacingAndGlyphs" textLength="40" x="549.5" y="687.2104">texture</text><text fill="#000000" font-family="sans-serif" font-size="11" lengthAdjust="spacingAndGlyphs" textLength="41" x="549.5" y="700.0151">volume</text><text fill="#000000" font-family="sans-serif" font-size="11" lengthAdjust="spacingAndGlyphs" textLength="52" x="549.5" y="712.8198">cubemap</text><text fill="#000000" font-family="sans-serif" font-size="11" lengthAdjust="spacingAndGlyphs" textLength="34" x="549.5" y="725.6245">music</text><text fill="#000000" font-family="sans-serif" font-size="11" lengthAdjust="spacingAndGlyphs" textLength="75" x="549.5" y="738.4292">musicstream</text><text fill="#000000" font-family="sans-serif" font-size="11" lengthAdjust="spacingAndGlyphs" textLength="20" x="549.5" y="751.2339">mic</text><text fill="#000000" font-family="sans-serif" font-size="11" lengthAdjust="spacingAndGlyphs" textLength="34" x="549.5" y="764.0386">buffer</text><text fill="#000000" font-family="sans-serif" font-size="11" lengthAdjust="spacingAndGlyphs" textLength="52" x="549.5" y="776.8433">keyboard</text><text fill="#000000" font-family="sans-serif" font-size="11" lengthAdjust="spacingAndGlyphs" textLength="30" x="549.5" y="789.6479">video</text><text fill="#000000" font-family="sans-serif" font-size="11" lengthAdjust="spacingAndGlyphs" textLength="47" x="549.5" y="802.4526">webcam</text><!--MD5=[3cab58e622330109321580dbb0b85605]
class Input--><rect fill="#FEFECE" filter="url(#fff9qf3jlitye)" height="142.4375" id="Input" style="stroke: #A80036; stroke-width: 1.5;" width="152" x="445" y="439"/><ellipse cx="500.75" cy="455" fill="#ADD1B2" rx="11" ry="11" style="stroke: #A80036; stroke-width: 1.0;"/><path d="M503.7188,460.6406 Q503.1406,460.9375 502.5,461.0781 Q501.8594,461.2344 501.1563,461.2344 Q498.6563,461.2344 497.3281,459.5938 Q496.0156,457.9375 496.0156,454.8125 Q496.0156,451.6875 497.3281,450.0313 Q498.6563,448.375 501.1563,448.375 Q501.8594,448.375 502.5,448.5313 Q503.1563,448.6875 503.7188,448.9844 L503.7188,451.7031 Q503.0938,451.125 502.5,450.8594 Q501.9063,450.5781 501.2813,450.5781 Q499.9375,450.5781 499.25,451.6563 Q498.5625,452.7188 498.5625,454.8125 Q498.5625,456.9063 499.25,457.9844 Q499.9375,459.0469 501.2813,459.0469 Q501.9063,459.0469 502.5,458.7813 Q503.0938,458.5 503.7188,457.9219 L503.7188,460.6406 Z "/><text fill="#000000" font-family="sans-serif" font-size="12" lengthAdjust="spacingAndGlyphs" textLength="32" x="521.25" y="459.1543">Input</text><line style="stroke: #A80036; stroke-width: 1.5;" x1="446" x2="596" y1="471" y2="471"/><ellipse cx="456" cy="482" fill="none" rx="3" ry="3" style="stroke: #038048; stroke-width: 1.0;"/><text fill="#000000" font-family="sans-serif" font-size="11" lengthAdjust="spacingAndGlyphs" textLength="48" x="465" y="485.2104">String id</text><ellipse cx="456" cy="494.8047" fill="none" rx="3" ry="3" style="stroke: #038048; stroke-width: 1.0;"/><text fill="#000000" font-family="sans-serif" font-size="11" lengthAdjust="spacingAndGlyphs" textLength="56" x="465" y="498.0151">String src</text><ellipse cx="456" cy="507.6094" fill="none" rx="3" ry="3" style="stroke: #038048; stroke-width: 1.0;"/><text fill="#000000" font-family="sans-serif" font-size="11" lengthAdjust="spacingAndGlyphs" textLength="80" x="465" y="510.8198">String filePath</text><ellipse cx="456" cy="520.4141" fill="none" rx="3" ry="3" style="stroke: #038048; stroke-width: 1.0;"/><text fill="#000000" font-family="sans-serif" font-size="11" lengthAdjust="spacingAndGlyphs" textLength="126" x="465" y="523.6245">String previewFilePath</text><ellipse cx="456" cy="533.2188" fill="none" rx="3" ry="3" style="stroke: #038048; stroke-width: 1.0;"/><text fill="#000000" font-family="sans-serif" font-size="11" lengthAdjust="spacingAndGlyphs" textLength="83" x="465" y="536.4292">InputType type</text><ellipse cx="456" cy="546.0234" fill="none" rx="3" ry="3" style="stroke: #038048; stroke-width: 1.0;"/><text fill="#000000" font-family="sans-serif" font-size="11" lengthAdjust="spacingAndGlyphs" textLength="62" x="465" y="549.2339">int channel</text><ellipse cx="456" cy="558.8281" fill="none" rx="3" ry="3" style="stroke: #038048; stroke-width: 1.0;"/><text fill="#000000" font-family="sans-serif" font-size="11" lengthAdjust="spacingAndGlyphs" textLength="99" x="465" y="562.0386">Sampler sampler</text><ellipse cx="456" cy="571.6328" fill="none" rx="3" ry="3" style="stroke: #038048; stroke-width: 1.0;"/><text fill="#000000" font-family="sans-serif" font-size="11" lengthAdjust="spacingAndGlyphs" textLength="73" x="465" y="574.8433">int published</text><!--MD5=[847fc839c78cd68cdbea65b88e602834]
class Output--><rect fill="#FEFECE" filter="url(#fff9qf3jlitye)" height="65.6094" id="Output" style="stroke: #A80036; stroke-width: 1.5;" width="88" x="632" y="477"/><ellipse cx="652.85" cy="493" fill="#ADD1B2" rx="11" ry="11" style="stroke: #A80036; stroke-width: 1.0;"/><path d="M655.8188,498.6406 Q655.2406,498.9375 654.6,499.0781 Q653.9594,499.2344 653.2563,499.2344 Q650.7563,499.2344 649.4281,497.5938 Q648.1156,495.9375 648.1156,492.8125 Q648.1156,489.6875 649.4281,488.0313 Q650.7563,486.375 653.2563,486.375 Q653.9594,486.375 654.6,486.5313 Q655.2563,486.6875 655.8188,486.9844 L655.8188,489.7031 Q655.1938,489.125 654.6,488.8594 Q654.0063,488.5781 653.3813,488.5781 Q652.0375,488.5781 651.35,489.6563 Q650.6625,490.7188 650.6625,492.8125 Q650.6625,494.9063 651.35,495.9844 Q652.0375,497.0469 653.3813,497.0469 Q654.0063,497.0469 654.6,496.7813 Q655.1938,496.5 655.8188,495.9219 L655.8188,498.6406 Z "/><text fill="#000000" font-family="sans-serif" font-size="12" lengthAdjust="spacingAndGlyphs" textLength="43" x="668.15" y="497.1543">Output</text><line style="stroke: #A80036; stroke-width: 1.5;" x1="633" x2="719" y1="509" y2="509"/><ellipse cx="643" cy="520" fill="none" rx="3" ry="3" style="stroke: #038048; stroke-width: 1.0;"/><text fill="#000000" font-family="sans-serif" font-size="11" lengthAdjust="spacingAndGlyphs" textLength="48" x="652" y="523.2104">String id</text><ellipse cx="643" cy="532.8047" fill="none" rx="3" ry="3" style="stroke: #038048; stroke-width: 1.0;"/><text fill="#000000" font-family="sans-serif" font-size="11" lengthAdjust="spacingAndGlyphs" textLength="62" x="652" y="536.0151">int channel</text><!--MD5=[e5a5830e1720fde2dd5bf575a16e759f]
class RenderPassType--><rect fill="#FEFECE" filter="url(#fff9qf3jlitye)" height="104.0234" id="RenderPassType" style="stroke: #A80036; stroke-width: 1.5;" width="136" x="755" y="458"/><ellipse cx="770" cy="474" fill="#EB937F" rx="11" ry="11" style="stroke: #A80036; stroke-width: 1.0;"/><path d="M774.1094,480 L766.3906,480 L766.3906,467.6094 L774.1094,467.6094 L774.1094,469.7656 L768.8438,469.7656 L768.8438,472.4375 L773.6094,472.4375 L773.6094,474.5938 L768.8438,474.5938 L768.8438,477.8438 L774.1094,477.8438 L774.1094,480 Z "/><text fill="#000000" font-family="sans-serif" font-size="12" lengthAdjust="spacingAndGlyphs" textLength="104" x="784" y="478.1543">RenderPassType</text><line style="stroke: #A80036; stroke-width: 1.5;" x1="756" x2="890" y1="490" y2="490"/><text fill="#000000" font-family="sans-serif" font-size="11" lengthAdjust="spacingAndGlyphs" textLength="35" x="761" y="504.2104">sound</text><text fill="#000000" font-family="sans-serif" font-size="11" lengthAdjust="spacingAndGlyphs" textLength="49" x="761" y="517.0151">common</text><text fill="#000000" font-family="sans-serif" font-size="11" lengthAdjust="spacingAndGlyphs" textLength="35" x="761" y="529.8198">image</text><text fill="#000000" font-family="sans-serif" font-size="11" lengthAdjust="spacingAndGlyphs" textLength="34" x="761" y="542.6245">buffer</text><text fill="#000000" font-family="sans-serif" font-size="11" lengthAdjust="spacingAndGlyphs" textLength="52" x="761" y="555.4292">cubemap</text><!--MD5=[238882db1a9318ba3cb11d591dea3b78]
class RenderPass--><rect fill="#FEFECE" filter="url(#fff9qf3jlitye)" height="116.8281" id="RenderPass" style="stroke: #A80036; stroke-width: 1.5;" width="149" x="560.5" y="230"/><ellipse cx="594.4" cy="246" fill="#ADD1B2" rx="11" ry="11" style="stroke: #A80036; stroke-width: 1.0;"/><path d="M597.3688,251.6406 Q596.7906,251.9375 596.15,252.0781 Q595.5094,252.2344 594.8063,252.2344 Q592.3063,252.2344 590.9781,250.5938 Q589.6656,248.9375 589.6656,245.8125 Q589.6656,242.6875 590.9781,241.0313 Q592.3063,239.375 594.8063,239.375 Q595.5094,239.375 596.15,239.5313 Q596.8063,239.6875 597.3688,239.9844 L597.3688,242.7031 Q596.7438,242.125 596.15,241.8594 Q595.5563,241.5781 594.9313,241.5781 Q593.5875,241.5781 592.9,242.6563 Q592.2125,243.7188 592.2125,245.8125 Q592.2125,247.9063 592.9,248.9844 Q593.5875,250.0469 594.9313,250.0469 Q595.5563,250.0469 596.15,249.7813 Q596.7438,249.5 597.3688,248.9219 L597.3688,251.6406 Z "/><text fill="#000000" font-family="sans-serif" font-size="12" lengthAdjust="spacingAndGlyphs" textLength="75" x="612.6" y="250.1543">RenderPass</text><line style="stroke: #A80036; stroke-width: 1.5;" x1="561.5" x2="708.5" y1="262" y2="262"/><ellipse cx="571.5" cy="273" fill="none" rx="3" ry="3" style="stroke: #038048; stroke-width: 1.0;"/><text fill="#000000" font-family="sans-serif" font-size="11" lengthAdjust="spacingAndGlyphs" textLength="70" x="580.5" y="276.2104">String name</text><ellipse cx="571.5" cy="285.8047" fill="none" rx="3" ry="3" style="stroke: #038048; stroke-width: 1.0;"/><text fill="#000000" font-family="sans-serif" font-size="11" lengthAdjust="spacingAndGlyphs" textLength="123" x="580.5" y="289.0151">RenderPassType type</text><ellipse cx="571.5" cy="298.6094" fill="none" rx="3" ry="3" style="stroke: #038048; stroke-width: 1.0;"/><text fill="#000000" font-family="sans-serif" font-size="11" lengthAdjust="spacingAndGlyphs" textLength="101" x="580.5" y="301.8198">String description</text><ellipse cx="571.5" cy="311.4141" fill="none" rx="3" ry="3" style="stroke: #038048; stroke-width: 1.0;"/><text fill="#000000" font-family="sans-serif" font-size="11" lengthAdjust="spacingAndGlyphs" textLength="65" x="580.5" y="314.6245">String code</text><ellipse cx="571.5" cy="324.2188" fill="none" rx="3" ry="3" style="stroke: #038048; stroke-width: 1.0;"/><text fill="#000000" font-family="sans-serif" font-size="11" lengthAdjust="spacingAndGlyphs" textLength="105" x="580.5" y="327.4292">List&lt;Input&gt; inputs</text><ellipse cx="571.5" cy="337.0234" fill="none" rx="3" ry="3" style="stroke: #038048; stroke-width: 1.0;"/><text fill="#000000" font-family="sans-serif" font-size="11" lengthAdjust="spacingAndGlyphs" textLength="123" x="580.5" y="340.2339">List&lt;Output&gt; outputs</text><!--MD5=[03b04ed89c1f7ac76f6e629bfb39a406]
class Shader--><rect fill="#FEFECE" filter="url(#fff9qf3jlitye)" height="78.4141" id="Shader" style="stroke: #A80036; stroke-width: 1.5;" width="216" x="429" y="34"/><ellipse cx="510.25" cy="50" fill="#ADD1B2" rx="11" ry="11" style="stroke: #A80036; stroke-width: 1.0;"/><path d="M513.2188,55.6406 Q512.6406,55.9375 512,56.0781 Q511.3594,56.2344 510.6563,56.2344 Q508.1563,56.2344 506.8281,54.5938 Q505.5156,52.9375 505.5156,49.8125 Q505.5156,46.6875 506.8281,45.0313 Q508.1563,43.375 510.6563,43.375 Q511.3594,43.375 512,43.5313 Q512.6563,43.6875 513.2188,43.9844 L513.2188,46.7031 Q512.5938,46.125 512,45.8594 Q511.4063,45.5781 510.7813,45.5781 Q509.4375,45.5781 508.75,46.6563 Q508.0625,47.7188 508.0625,49.8125 Q508.0625,51.9063 508.75,52.9844 Q509.4375,54.0469 510.7813,54.0469 Q511.4063,54.0469 512,53.7813 Q512.5938,53.5 513.2188,52.9219 L513.2188,55.6406 Z "/><text fill="#000000" font-family="sans-serif" font-size="12" lengthAdjust="spacingAndGlyphs" textLength="45" x="530.75" y="54.1543">Shader</text><line style="stroke: #A80036; stroke-width: 1.5;" x1="430" x2="644" y1="66" y2="66"/><ellipse cx="440" cy="77" fill="none" rx="3" ry="3" style="stroke: #038048; stroke-width: 1.0;"/><text fill="#000000" font-family="sans-serif" font-size="11" lengthAdjust="spacingAndGlyphs" textLength="80" x="449" y="80.2104">String version</text><ellipse cx="440" cy="89.8047" fill="none" rx="3" ry="3" style="stroke: #038048; stroke-width: 1.0;"/><text fill="#000000" font-family="sans-serif" font-size="11" lengthAdjust="spacingAndGlyphs" textLength="46" x="449" y="93.0151">Info Info</text><ellipse cx="440" cy="102.6094" fill="none" rx="3" ry="3" style="stroke: #038048; stroke-width: 1.0;"/><text fill="#000000" font-family="sans-serif" font-size="11" lengthAdjust="spacingAndGlyphs" textLength="190" x="449" y="105.8198">List&lt;RenderPass&gt; renderPasses</text><!--MD5=[51f5317a6dc5adfb9dc1aa9e10bafca5]
class PlaylistPrivacy--><rect fill="#FEFECE" filter="url(#fff9qf3jlitye)" height="78.4141" id="PlaylistPrivacy" style="stroke: #A80036; stroke-width: 1.5;" width="118" x="179" y="249.5"/><ellipse cx="194" cy="265.5" fill="#EB937F" rx="11" ry="11" style="stroke: #A80036; stroke-width: 1.0;"/><path d="M198.1094,271.5 L190.3906,271.5 L190.3906,259.1094 L198.1094,259.1094 L198.1094,261.2656 L192.8438,261.2656 L192.8438,263.9375 L197.6094,263.9375 L197.6094,266.0938 L192.8438,266.0938 L192.8438,269.3438 L198.1094,269.3438 L198.1094,271.5 Z "/><text fill="#000000" font-family="sans-serif" font-size="12" lengthAdjust="spacingAndGlyphs" textLength="86" x="208" y="269.6543">PlaylistPrivacy</text><line style="stroke: #A80036; stroke-width: 1.5;" x1="180" x2="296" y1="281.5" y2="281.5"/><text fill="#000000" font-family="sans-serif" font-size="11" lengthAdjust="spacingAndGlyphs" textLength="39" x="185" y="295.7104">private</text><text fill="#000000" font-family="sans-serif" font-size="11" lengthAdjust="spacingAndGlyphs" textLength="45" x="185" y="308.5151">unlisted</text><text fill="#000000" font-family="sans-serif" font-size="11" lengthAdjust="spacingAndGlyphs" textLength="33" x="185" y="321.3198">public</text><!--MD5=[2ce409087c256806e794369f9639a134]
class Playlist--><rect fill="#FEFECE" filter="url(#fff9qf3jlitye)" height="104.0234" id="Playlist" style="stroke: #A80036; stroke-width: 1.5;" width="150" x="163" y="21"/><ellipse cx="212.25" cy="37" fill="#ADD1B2" rx="11" ry="11" style="stroke: #A80036; stroke-width: 1.0;"/><path d="M215.2188,42.6406 Q214.6406,42.9375 214,43.0781 Q213.3594,43.2344 212.6563,43.2344 Q210.1563,43.2344 208.8281,41.5938 Q207.5156,39.9375 207.5156,36.8125 Q207.5156,33.6875 208.8281,32.0313 Q210.1563,30.375 212.6563,30.375 Q213.3594,30.375 214,30.5313 Q214.6563,30.6875 215.2188,30.9844 L215.2188,33.7031 Q214.5938,33.125 214,32.8594 Q213.4063,32.5781 212.7813,32.5781 Q211.4375,32.5781 210.75,33.6563 Q210.0625,34.7188 210.0625,36.8125 Q210.0625,38.9063 210.75,39.9844 Q211.4375,41.0469 212.7813,41.0469 Q213.4063,41.0469 214,40.7813 Q214.5938,40.5 215.2188,39.9219 L215.2188,42.6406 Z "/><text fill="#000000" font-family="sans-serif" font-size="12" lengthAdjust="spacingAndGlyphs" textLength="43" x="232.75" y="41.1543">Playlist</text><line style="stroke: #A80036; stroke-width: 1.5;" x1="164" x2="312" y1="53" y2="53"/><ellipse cx="174" cy="64" fill="none" rx="3" ry="3" style="stroke: #038048; stroke-width: 1.0;"/><text fill="#000000" font-family="sans-serif" font-size="11" lengthAdjust="spacingAndGlyphs" textLength="48" x="183" y="67.2104">String id</text><ellipse cx="174" cy="76.8047" fill="none" rx="3" ry="3" style="stroke: #038048; stroke-width: 1.0;"/><text fill="#000000" font-family="sans-serif" font-size="11" lengthAdjust="spacingAndGlyphs" textLength="74" x="183" y="80.0151">String userId</text><ellipse cx="174" cy="89.6094" fill="none" rx="3" ry="3" style="stroke: #038048; stroke-width: 1.0;"/><text fill="#000000" font-family="sans-serif" font-size="11" lengthAdjust="spacingAndGlyphs" textLength="70" x="183" y="92.8198">String name</text><ellipse cx="174" cy="102.4141" fill="none" rx="3" ry="3" style="stroke: #038048; stroke-width: 1.0;"/><text fill="#000000" font-family="sans-serif" font-size="11" lengthAdjust="spacingAndGlyphs" textLength="101" x="183" y="105.6245">String description</text><ellipse cx="174" cy="115.2188" fill="none" rx="3" ry="3" style="stroke: #038048; stroke-width: 1.0;"/><text fill="#000000" font-family="sans-serif" font-size="11" lengthAdjust="spacingAndGlyphs" textLength="124" x="183" y="118.4292">PlaylistPrivacy privacy</text><!--MD5=[279d4fab721081fe8028071c83eb16bd]
link Info to ShaderPrivacy--><path d="M384.33,379.1 C376.56,408.49 368.26,439.89 361.77,464.45 " fill="none" id="Info-ShaderPrivacy" style="stroke: #A80036; stroke-width: 1.0; stroke-dasharray: 7.0,7.0;"/><!--MD5=[e6c152588259b4f6ebf34b280c858812]
link Sampler to FilterType--><path d="M434.51,777.24 C424.74,805.86 412.68,841.19 403.29,868.71 " fill="none" id="Sampler-FilterType" style="stroke: #A80036; stroke-width: 1.0; stroke-dasharray: 7.0,7.0;"/><!--MD5=[fa07d61fb7493726bca773c5e9965c93]
link Sampler to WrapType--><path d="M469.49,777.24 C479.26,805.86 491.32,841.19 500.71,868.71 " fill="none" id="Sampler-WrapType" style="stroke: #A80036; stroke-width: 1.0; stroke-dasharray: 7.0,7.0;"/><!--MD5=[698a9c0837b0fead6b394295697c0722]
link Input to InputType--><path d="M543.69,581.04 C549.89,600.2 556.68,621.15 563.1,640.95 " fill="none" id="Input-InputType" style="stroke: #A80036; stroke-width: 1.0; stroke-dasharray: 7.0,7.0;"/><!--MD5=[54656a65a6b176d5f6a50ead8cca7705]
link RenderPass to RenderPassType--><path d="M684.39,347.17 C713.77,381.47 750.71,424.59 779.06,457.7 " fill="none" id="RenderPass-RenderPassType" style="stroke: #A80036; stroke-width: 1.0; stroke-dasharray: 7.0,7.0;"/><!--MD5=[282f3bf7ae85f06707cf7ceb38c271ec]
link Playlist to PlaylistPrivacy--><path d="M238,125.14 C238,163.38 238,214.83 238,249.48 " fill="none" id="Playlist-PlaylistPrivacy" style="stroke: #A80036; stroke-width: 1.0; stroke-dasharray: 7.0,7.0;"/><!--MD5=[8f19c8e5af5278cb995804fcff4b21af]
reverse link Shader to Info--><path d="M507.03,123.6 C493.69,145.68 477.54,172.4 462.2,197.8 " fill="none" id="Shader&lt;-Info" style="stroke: #A80036; stroke-width: 1.0;"/><polygon fill="#FFFFFF" points="513.94,112.17,507.4126,115.2349,507.7312,122.4389,514.2586,119.3741,513.94,112.17" style="stroke: #A80036; stroke-width: 1.0;"/><text fill="#000000" font-family="sans-serif" font-size="13" lengthAdjust="spacingAndGlyphs" textLength="23" x="480.1527" y="132.5249">info</text><text fill="#000000" font-family="sans-serif" font-size="13" lengthAdjust="spacingAndGlyphs" textLength="8" x="458.2003" y="187.0528">1</text><!--MD5=[caff0fb8dd27e7bce1db43d75c971a9b]
reverse link Shader to RenderPass--><path d="M560.07,124.26 C574.61,155.95 593.44,196.97 608.59,229.96 " fill="none" id="Shader&lt;-RenderPass" style="stroke: #A80036; stroke-width: 1.0;"/><polygon fill="#FFFFFF" points="554.52,112.17,553.3834,119.291,559.5194,123.079,560.656,115.958,554.52,112.17" style="stroke: #A80036; stroke-width: 1.0;"/><text fill="#000000" font-family="sans-serif" font-size="13" lengthAdjust="spacingAndGlyphs" textLength="87" x="587.1704" y="132.5249">renderPasses</text><text fill="#000000" font-family="sans-serif" font-size="13" lengthAdjust="spacingAndGlyphs" textLength="23" x="572.4822" y="218.9968">1..*</text><!--MD5=[b192379bd1989d5bbc4c6d9a7d1e3228]
reverse link RenderPass to Input--><path d="M598.91,358.99 C585.68,384.45 570.72,413.27 557.46,438.8 " fill="none" id="RenderPass&lt;-Input" style="stroke: #A80036; stroke-width: 1.0;"/><polygon fill="#FFFFFF" points="605.05,347.17,598.7318,350.6457,599.51,357.8147,605.8282,354.339,605.05,347.17" style="stroke: #A80036; stroke-width: 1.0;"/><text fill="#000000" font-family="sans-serif" font-size="13" lengthAdjust="spacingAndGlyphs" textLength="39" x="551.8698" y="366.9054">inputs</text><text fill="#000000" font-family="sans-serif" font-size="13" lengthAdjust="spacingAndGlyphs" textLength="23" x="537.034" y="427.7352">1..*</text><!--MD5=[e49e12051756ad7174cb4f3543a7a0ec]
reverse link RenderPass to Output--><path d="M648.2,360.15 C655.53,399.4 664.29,446.31 669.99,476.84 " fill="none" id="RenderPass&lt;-Output" style="stroke: #A80036; stroke-width: 1.0;"/><polygon fill="#FFFFFF" points="645.77,347.17,642.9469,353.8055,647.9862,358.9636,650.8093,352.328,645.77,347.17" style="stroke: #A80036; stroke-width: 1.0;"/><text fill="#000000" font-family="sans-serif" font-size="13" lengthAdjust="spacingAndGlyphs" textLength="49" x="649.8481" y="366.9054">outputs</text><text fill="#000000" font-family="sans-serif" font-size="13" lengthAdjust="spacingAndGlyphs" textLength="23" x="643.5427" y="465.9535">1..*</text><!--MD5=[65c9f653de6ec396eae5b32b37f4e935]
reverse link Input to Sampler--><path d="M494.26,593.54 C485.61,620.25 476.27,649.07 468.58,672.82 " fill="none" id="Input&lt;-Sampler" style="stroke: #A80036; stroke-width: 1.0;"/><polygon fill="#FFFFFF" points="498.31,581.04,492.6519,585.5106,494.6025,592.4529,500.2605,587.9823,498.31,581.04" style="stroke: #A80036; stroke-width: 1.0;"/><text fill="#000000" font-family="sans-serif" font-size="13" lengthAdjust="spacingAndGlyphs" textLength="52" x="436.7658" y="601.6805">sampler</text><text fill="#000000" font-family="sans-serif" font-size="13" lengthAdjust="spacingAndGlyphs" textLength="8" x="462.2704" y="661.8747">1</text><!--MD5=[41c570bcc2d1df6f5d63710391dac55c]
link Info to User--><path d="M332.28,364.28 C326.53,369.37 320.73,374.33 315,379 C277.82,409.34 233.76,439.92 197.55,463.79 " fill="none" id="Info-User" style="stroke: #A80036; stroke-width: 1.0;"/><!--MD5=[bae4ea4bf9c09909ed509b11f4a10ce1]
link Playlist to Info--><path d="M278.72,125.14 C296.11,146.97 316.92,173.12 336.72,197.98 " fill="none" id="Playlist-Info" style="stroke: #A80036; stroke-width: 1.0;"/><!--MD5=[03b83e5f34cd6aa5644f981585d82b91]
link Playlist to User--><path d="M199.14,125.09 C184.8,146.52 169.89,172.38 161,198 C131.58,282.83 125.55,387.73 124.98,451.44 " fill="none" id="Playlist-User" style="stroke: #A80036; stroke-width: 1.0;"/><!--MD5=[eefc92865afa0eb0479af9e237f1c4f7]
link Comment to Info--><path d="M120.08,122.23 C128.17,127.97 136.61,133.4 145,138 C215.28,176.48 246.81,155.93 315,198 C320.91,201.65 326.76,205.72 332.46,210.07 " fill="none" id="Comment-Info" style="stroke: #A80036; stroke-width: 1.0;"/><!--MD5=[6a06045152f20214b4760875fd259869]
link Comment to User--><path d="M69.34,138.17 C75.79,200.03 86.71,296.18 100,379 C103.81,402.75 108.84,428.77 113.46,451.25 " fill="none" id="Comment-User" style="stroke: #A80036; stroke-width: 1.0;"/><!--MD5=[4ecd86c798e8ad8987cd6ffa0ad6722e]
@startuml model

hide methods

class User {
 +String id
 +String picture
 +String memberSince
 +int following
 +int followers
 +String about
}

class Comment {
    +String id
    +String shaderId
    +String userId
    +String picture
    +DateTime date
    +String text
    +boolean hidden
}

enum ShaderPrivacy {
    private
    unlisted
    public
    public_api
}

class Info {
    +String id
    +DateTime date
    +int views 
    +String name
    +String userId
    +String description
    +int likes
    +ShaderPrivacy privacy
    +int flags
    +List<String> tags
    +bool hasLiked
}

enum FilterType {
    none
    nearest
    linear
    mipmap
}

enum WrapType {
    none
    clamp
    repeat
    mirror
}

class Sampler {
    +FilterType filter
    +WrapType wrap
    +bool vflip
    +bool srgb
    +String internal
}

enum InputType {
    texture
    volume
    cubemap
    music
    musicstream
    mic
    buffer
    keyboard
    video
    webcam
}

class Input {
    +String id
    +String src
    +String filePath
    +String previewFilePath
    +InputType type
    +int channel
    +Sampler sampler
    +int published
}

class Output {
    +String id
    +int channel
}

enum RenderPassType {
    sound
    common
    image
    buffer
    cubemap
}

class RenderPass {
    +String name
    +RenderPassType type
    +String description
    +String code
    +List<Input> inputs
    +List<Output> outputs

}

class Shader {
    +String version
    +Info Info
    +List<RenderPass> renderPasses
}

enum PlaylistPrivacy {
    private
    unlisted
    public
}

class Playlist {
    +String id
    +String userId
    +String name
    +String description
    +PlaylistPrivacy privacy
}

Info  .. ShaderPrivacy
Sampler .. FilterType
Sampler .. WrapType
Input .. InputType
RenderPass .. RenderPassType
Playlist .. PlaylistPrivacy

Shader "             info" o- - "1" Info
Shader "     renderPasses" o- - "1..*  " RenderPass
RenderPass "inputs  " o- - "1..*" Input
RenderPass "outputs" o- - "1..*" Output
Input "sampler " o- - "1" Sampler

Info - - User
Playlist - - Info
Playlist - - User
Comment - - Info
Comment - - User


@enduml

PlantUML version 1.2020.02(Sun Mar 01 10:22:07 GMT 2020)
(GPL source distribution)
Java Runtime: OpenJDK Runtime Environment
JVM: OpenJDK 64-Bit Server VM
Java Version: 11.0.9+11-Ubuntu-0ubuntu1
Operating System: Linux
Default Encoding: ANSI_X3.4-1968
Language: en
Country: US
--></g></svg>