<?xml version="1.0" encoding="UTF-8" standalone="no"?><svg xmlns="http://www.w3.org/2000/svg" xmlns:xlink="http://www.w3.org/1999/xlink" contentScriptType="application/ecmascript" contentStyleType="text/css" height="971px" preserveAspectRatio="none" style="width:804px;height:971px;" version="1.1" viewBox="0 0 804 971" width="804px" zoomAndPan="magnify"><defs><filter height="300%" id="fufeyifsuj5fn" width="300%" x="-1" y="-1"><feGaussianBlur result="blurOut" stdDeviation="2.0"/><feColorMatrix in="blurOut" result="blurOut2" type="matrix" values="0 0 0 0 0 0 0 0 0 0 0 0 0 0 0 0 0 0 .4 0"/><feOffset dx="4.0" dy="4.0" in="blurOut2" result="blurOut3"/><feBlend in="SourceGraphic" in2="blurOut3" mode="normal"/></filter></defs><g><!--MD5=[3fd616f346a44cd59a91eb10b19e157c]
class User--><rect fill="#FEFECE" filter="url(#fufeyifsuj5fn)" height="116.8281" id="User" style="stroke: #A80036; stroke-width: 1.5;" width="143" x="13.5" y="451.5"/><ellipse cx="66.25" cy="467.5" fill="#ADD1B2" rx="11" ry="11" style="stroke: #A80036; stroke-width: 1.0;"/><path d="M69.2188,473.1406 Q68.6406,473.4375 68,473.5781 Q67.3594,473.7344 66.6563,473.7344 Q64.1563,473.7344 62.8281,472.0938 Q61.5156,470.4375 61.5156,467.3125 Q61.5156,464.1875 62.8281,462.5313 Q64.1563,460.875 66.6563,460.875 Q67.3594,460.875 68,461.0313 Q68.6563,461.1875 69.2188,461.4844 L69.2188,464.2031 Q68.5938,463.625 68,463.3594 Q67.4063,463.0781 66.7813,463.0781 Q65.4375,463.0781 64.75,464.1563 Q64.0625,465.2188 64.0625,467.3125 Q64.0625,469.4063 64.75,470.4844 Q65.4375,471.5469 66.7813,471.5469 Q67.4063,471.5469 68,471.2813 Q68.5938,471 69.2188,470.4219 L69.2188,473.1406 Z "/><text fill="#000000" font-family="sans-serif" font-size="12" lengthAdjust="spacingAndGlyphs" textLength="29" x="86.75" y="471.6543">User</text><line style="stroke: #A80036; stroke-width: 1.5;" x1="14.5" x2="155.5" y1="483.5" y2="483.5"/><ellipse cx="24.5" cy="494.5" fill="none" rx="3" ry="3" style="stroke: #038048; stroke-width: 1.0;"/><text fill="#000000" font-family="sans-serif" font-size="11" lengthAdjust="spacingAndGlyphs" textLength="48" x="33.5" y="497.7104">String id</text><ellipse cx="24.5" cy="507.3047" fill="none" rx="3" ry="3" style="stroke: #038048; stroke-width: 1.0;"/><text fill="#000000" font-family="sans-serif" font-size="11" lengthAdjust="spacingAndGlyphs" textLength="77" x="33.5" y="510.5151">String picture</text><ellipse cx="24.5" cy="520.1094" fill="none" rx="3" ry="3" style="stroke: #038048; stroke-width: 1.0;"/><text fill="#000000" font-family="sans-serif" font-size="11" lengthAdjust="spacingAndGlyphs" textLength="117" x="33.5" y="523.3198">String memberSince</text><ellipse cx="24.5" cy="532.9141" fill="none" rx="3" ry="3" style="stroke: #038048; stroke-width: 1.0;"/><text fill="#000000" font-family="sans-serif" font-size="11" lengthAdjust="spacingAndGlyphs" textLength="68" x="33.5" y="536.1245">int following</text><ellipse cx="24.5" cy="545.7188" fill="none" rx="3" ry="3" style="stroke: #038048; stroke-width: 1.0;"/><text fill="#000000" font-family="sans-serif" font-size="11" lengthAdjust="spacingAndGlyphs" textLength="70" x="33.5" y="548.9292">int followers</text><ellipse cx="24.5" cy="558.5234" fill="none" rx="3" ry="3" style="stroke: #038048; stroke-width: 1.0;"/><text fill="#000000" font-family="sans-serif" font-size="11" lengthAdjust="spacingAndGlyphs" textLength="70" x="33.5" y="561.7339">String about</text><!--MD5=[042fa140da40c49659127f611bcff931]
class Comment--><rect fill="#FEFECE" filter="url(#fufeyifsuj5fn)" height="129.6328" id="Comment" style="stroke: #A80036; stroke-width: 1.5;" width="114" x="6" y="8"/><ellipse cx="31.35" cy="24" fill="#ADD1B2" rx="11" ry="11" style="stroke: #A80036; stroke-width: 1.0;"/><path d="M34.3188,29.6406 Q33.7406,29.9375 33.1,30.0781 Q32.4594,30.2344 31.7563,30.2344 Q29.2563,30.2344 27.9281,28.5938 Q26.6156,26.9375 26.6156,23.8125 Q26.6156,20.6875 27.9281,19.0313 Q29.2563,17.375 31.7563,17.375 Q32.4594,17.375 33.1,17.5313 Q33.7563,17.6875 34.3188,17.9844 L34.3188,20.7031 Q33.6938,20.125 33.1,19.8594 Q32.5063,19.5781 31.8813,19.5781 Q30.5375,19.5781 29.85,20.6563 Q29.1625,21.7188 29.1625,23.8125 Q29.1625,25.9063 29.85,26.9844 Q30.5375,28.0469 31.8813,28.0469 Q32.5063,28.0469 33.1,27.7813 Q33.6938,27.5 34.3188,26.9219 L34.3188,29.6406 Z "/><text fill="#000000" font-family="sans-serif" font-size="12" lengthAdjust="spacingAndGlyphs" textLength="59" x="47.65" y="28.1543">Comment</text><line style="stroke: #A80036; stroke-width: 1.5;" x1="7" x2="119" y1="40" y2="40"/><ellipse cx="17" cy="51" fill="none" rx="3" ry="3" style="stroke: #038048; stroke-width: 1.0;"/><text fill="#000000" font-family="sans-serif" font-size="11" lengthAdjust="spacingAndGlyphs" textLength="48" x="26" y="54.2104">String id</text><ellipse cx="17" cy="63.8047" fill="none" rx="3" ry="3" style="stroke: #038048; stroke-width: 1.0;"/><text fill="#000000" font-family="sans-serif" font-size="11" lengthAdjust="spacingAndGlyphs" textLength="88" x="26" y="67.0151">String shaderId</text><ellipse cx="17" cy="76.6094" fill="none" rx="3" ry="3" style="stroke: #038048; stroke-width: 1.0;"/><text fill="#000000" font-family="sans-serif" font-size="11" lengthAdjust="spacingAndGlyphs" textLength="74" x="26" y="79.8198">String userId</text><ellipse cx="17" cy="89.4141" fill="none" rx="3" ry="3" style="stroke: #038048; stroke-width: 1.0;"/><text fill="#000000" font-family="sans-serif" font-size="11" lengthAdjust="spacingAndGlyphs" textLength="77" x="26" y="92.6245">String picture</text><ellipse cx="17" cy="102.2188" fill="none" rx="3" ry="3" style="stroke: #038048; stroke-width: 1.0;"/><text fill="#000000" font-family="sans-serif" font-size="11" lengthAdjust="spacingAndGlyphs" textLength="83" x="26" y="105.4292">DateTime date</text><ellipse cx="17" cy="115.0234" fill="none" rx="3" ry="3" style="stroke: #038048; stroke-width: 1.0;"/><text fill="#000000" font-family="sans-serif" font-size="11" lengthAdjust="spacingAndGlyphs" textLength="59" x="26" y="118.2339">String text</text><ellipse cx="17" cy="127.8281" fill="none" rx="3" ry="3" style="stroke: #038048; stroke-width: 1.0;"/><text fill="#000000" font-family="sans-serif" font-size="11" lengthAdjust="spacingAndGlyphs" textLength="87" x="26" y="131.0386">boolean hidden</text><!--MD5=[03c346c7ea445837e8975099d55cba7e]
class ShaderPrivacy--><rect fill="#FEFECE" filter="url(#fufeyifsuj5fn)" height="91.2188" id="ShaderPrivacy" style="stroke: #A80036; stroke-width: 1.5;" width="120" x="192" y="464.5"/><ellipse cx="207" cy="480.5" fill="#EB937F" rx="11" ry="11" style="stroke: #A80036; stroke-width: 1.0;"/><path d="M211.1094,486.5 L203.3906,486.5 L203.3906,474.1094 L211.1094,474.1094 L211.1094,476.2656 L205.8438,476.2656 L205.8438,478.9375 L210.6094,478.9375 L210.6094,481.0938 L205.8438,481.0938 L205.8438,484.3438 L211.1094,484.3438 L211.1094,486.5 Z "/><text fill="#000000" font-family="sans-serif" font-size="12" lengthAdjust="spacingAndGlyphs" textLength="88" x="221" y="484.6543">ShaderPrivacy</text><line style="stroke: #A80036; stroke-width: 1.5;" x1="193" x2="311" y1="496.5" y2="496.5"/><text fill="#000000" font-family="sans-serif" font-size="11" lengthAdjust="spacingAndGlyphs" textLength="39" x="198" y="510.7104">private</text><text fill="#000000" font-family="sans-serif" font-size="11" lengthAdjust="spacingAndGlyphs" textLength="45" x="198" y="523.5151">unlisted</text><text fill="#000000" font-family="sans-serif" font-size="11" lengthAdjust="spacingAndGlyphs" textLength="33" x="198" y="536.3198">public</text><text fill="#000000" font-family="sans-serif" font-size="11" lengthAdjust="spacingAndGlyphs" textLength="56" x="198" y="549.1245">public_api</text><!--MD5=[88dbfe8572c16244f15eec58f6037418]
class Info--><rect fill="#FEFECE" filter="url(#fufeyifsuj5fn)" height="180.8516" id="Info" style="stroke: #A80036; stroke-width: 1.5;" width="151" x="176.5" y="198"/><ellipse cx="236.25" cy="214" fill="#ADD1B2" rx="11" ry="11" style="stroke: #A80036; stroke-width: 1.0;"/><path d="M239.2188,219.6406 Q238.6406,219.9375 238,220.0781 Q237.3594,220.2344 236.6563,220.2344 Q234.1563,220.2344 232.8281,218.5938 Q231.5156,216.9375 231.5156,213.8125 Q231.5156,210.6875 232.8281,209.0313 Q234.1563,207.375 236.6563,207.375 Q237.3594,207.375 238,207.5313 Q238.6563,207.6875 239.2188,207.9844 L239.2188,210.7031 Q238.5938,210.125 238,209.8594 Q237.4063,209.5781 236.7813,209.5781 Q235.4375,209.5781 234.75,210.6563 Q234.0625,211.7188 234.0625,213.8125 Q234.0625,215.9063 234.75,216.9844 Q235.4375,218.0469 236.7813,218.0469 Q237.4063,218.0469 238,217.7813 Q238.5938,217.5 239.2188,216.9219 L239.2188,219.6406 Z "/><text fill="#000000" font-family="sans-serif" font-size="12" lengthAdjust="spacingAndGlyphs" textLength="23" x="256.75" y="218.1543">Info</text><line style="stroke: #A80036; stroke-width: 1.5;" x1="177.5" x2="326.5" y1="230" y2="230"/><ellipse cx="187.5" cy="241" fill="none" rx="3" ry="3" style="stroke: #038048; stroke-width: 1.0;"/><text fill="#000000" font-family="sans-serif" font-size="11" lengthAdjust="spacingAndGlyphs" textLength="48" x="196.5" y="244.2104">String id</text><ellipse cx="187.5" cy="253.8047" fill="none" rx="3" ry="3" style="stroke: #038048; stroke-width: 1.0;"/><text fill="#000000" font-family="sans-serif" font-size="11" lengthAdjust="spacingAndGlyphs" textLength="83" x="196.5" y="257.0151">DateTime date</text><ellipse cx="187.5" cy="266.6094" fill="none" rx="3" ry="3" style="stroke: #038048; stroke-width: 1.0;"/><text fill="#000000" font-family="sans-serif" font-size="11" lengthAdjust="spacingAndGlyphs" textLength="50" x="196.5" y="269.8198">int views</text><ellipse cx="187.5" cy="279.4141" fill="none" rx="3" ry="3" style="stroke: #038048; stroke-width: 1.0;"/><text fill="#000000" font-family="sans-serif" font-size="11" lengthAdjust="spacingAndGlyphs" textLength="70" x="196.5" y="282.6245">String name</text><ellipse cx="187.5" cy="292.2188" fill="none" rx="3" ry="3" style="stroke: #038048; stroke-width: 1.0;"/><text fill="#000000" font-family="sans-serif" font-size="11" lengthAdjust="spacingAndGlyphs" textLength="74" x="196.5" y="295.4292">String userId</text><ellipse cx="187.5" cy="305.0234" fill="none" rx="3" ry="3" style="stroke: #038048; stroke-width: 1.0;"/><text fill="#000000" font-family="sans-serif" font-size="11" lengthAdjust="spacingAndGlyphs" textLength="101" x="196.5" y="308.2339">String description</text><ellipse cx="187.5" cy="317.8281" fill="none" rx="3" ry="3" style="stroke: #038048; stroke-width: 1.0;"/><text fill="#000000" font-family="sans-serif" font-size="11" lengthAdjust="spacingAndGlyphs" textLength="44" x="196.5" y="321.0386">int likes</text><ellipse cx="187.5" cy="330.6328" fill="none" rx="3" ry="3" style="stroke: #038048; stroke-width: 1.0;"/><text fill="#000000" font-family="sans-serif" font-size="11" lengthAdjust="spacingAndGlyphs" textLength="125" x="196.5" y="333.8433">ShaderPrivacy privacy</text><ellipse cx="187.5" cy="343.4375" fill="none" rx="3" ry="3" style="stroke: #038048; stroke-width: 1.0;"/><text fill="#000000" font-family="sans-serif" font-size="11" lengthAdjust="spacingAndGlyphs" textLength="46" x="196.5" y="346.6479">int flags</text><ellipse cx="187.5" cy="356.2422" fill="none" rx="3" ry="3" style="stroke: #038048; stroke-width: 1.0;"/><text fill="#000000" font-family="sans-serif" font-size="11" lengthAdjust="spacingAndGlyphs" textLength="101" x="196.5" y="359.4526">List&lt;String&gt; tags</text><ellipse cx="187.5" cy="369.0469" fill="none" rx="3" ry="3" style="stroke: #038048; stroke-width: 1.0;"/><text fill="#000000" font-family="sans-serif" font-size="11" lengthAdjust="spacingAndGlyphs" textLength="78" x="196.5" y="372.2573">bool hasLiked</text><!--MD5=[a936fc4126fe56f190c56d68d827f6b3]
class FilterType--><rect fill="#FEFECE" filter="url(#fufeyifsuj5fn)" height="91.2188" id="FilterType" style="stroke: #A80036; stroke-width: 1.5;" width="92" x="244" y="869"/><ellipse cx="259" cy="885" fill="#EB937F" rx="11" ry="11" style="stroke: #A80036; stroke-width: 1.0;"/><path d="M263.1094,891 L255.3906,891 L255.3906,878.6094 L263.1094,878.6094 L263.1094,880.7656 L257.8438,880.7656 L257.8438,883.4375 L262.6094,883.4375 L262.6094,885.5938 L257.8438,885.5938 L257.8438,888.8438 L263.1094,888.8438 L263.1094,891 Z "/><text fill="#000000" font-family="sans-serif" font-size="12" lengthAdjust="spacingAndGlyphs" textLength="60" x="273" y="889.1543">FilterType</text><line style="stroke: #A80036; stroke-width: 1.5;" x1="245" x2="335" y1="901" y2="901"/><text fill="#000000" font-family="sans-serif" font-size="11" lengthAdjust="spacingAndGlyphs" textLength="28" x="250" y="915.2104">none</text><text fill="#000000" font-family="sans-serif" font-size="11" lengthAdjust="spacingAndGlyphs" textLength="44" x="250" y="928.0151">nearest</text><text fill="#000000" font-family="sans-serif" font-size="11" lengthAdjust="spacingAndGlyphs" textLength="32" x="250" y="940.8198">linear</text><text fill="#000000" font-family="sans-serif" font-size="11" lengthAdjust="spacingAndGlyphs" textLength="46" x="250" y="953.6245">mipmap</text><!--MD5=[87ced7e318cf233d499af00967daf86d]
class WrapType--><rect fill="#FEFECE" filter="url(#fufeyifsuj5fn)" height="91.2188" id="WrapType" style="stroke: #A80036; stroke-width: 1.5;" width="93" x="371.5" y="869"/><ellipse cx="386.5" cy="885" fill="#EB937F" rx="11" ry="11" style="stroke: #A80036; stroke-width: 1.0;"/><path d="M390.6094,891 L382.8906,891 L382.8906,878.6094 L390.6094,878.6094 L390.6094,880.7656 L385.3438,880.7656 L385.3438,883.4375 L390.1094,883.4375 L390.1094,885.5938 L385.3438,885.5938 L385.3438,888.8438 L390.6094,888.8438 L390.6094,891 Z "/><text fill="#000000" font-family="sans-serif" font-size="12" lengthAdjust="spacingAndGlyphs" textLength="61" x="400.5" y="889.1543">WrapType</text><line style="stroke: #A80036; stroke-width: 1.5;" x1="372.5" x2="463.5" y1="901" y2="901"/><text fill="#000000" font-family="sans-serif" font-size="11" lengthAdjust="spacingAndGlyphs" textLength="28" x="377.5" y="915.2104">none</text><text fill="#000000" font-family="sans-serif" font-size="11" lengthAdjust="spacingAndGlyphs" textLength="34" x="377.5" y="928.0151">clamp</text><text fill="#000000" font-family="sans-serif" font-size="11" lengthAdjust="spacingAndGlyphs" textLength="37" x="377.5" y="940.8198">repeat</text><text fill="#000000" font-family="sans-serif" font-size="11" lengthAdjust="spacingAndGlyphs" textLength="36" x="377.5" y="953.6245">mirror</text><!--MD5=[c1863ae7a83f0d4114d1dc5ffc6f27df]
class Sampler--><rect fill="#FEFECE" filter="url(#fufeyifsuj5fn)" height="104.0234" id="Sampler" style="stroke: #A80036; stroke-width: 1.5;" width="113" x="297.5" y="673"/><ellipse cx="326" cy="689" fill="#ADD1B2" rx="11" ry="11" style="stroke: #A80036; stroke-width: 1.0;"/><path d="M328.9688,694.6406 Q328.3906,694.9375 327.75,695.0781 Q327.1094,695.2344 326.4063,695.2344 Q323.9063,695.2344 322.5781,693.5938 Q321.2656,691.9375 321.2656,688.8125 Q321.2656,685.6875 322.5781,684.0313 Q323.9063,682.375 326.4063,682.375 Q327.1094,682.375 327.75,682.5313 Q328.4063,682.6875 328.9688,682.9844 L328.9688,685.7031 Q328.3438,685.125 327.75,684.8594 Q327.1563,684.5781 326.5313,684.5781 Q325.1875,684.5781 324.5,685.6563 Q323.8125,686.7188 323.8125,688.8125 Q323.8125,690.9063 324.5,691.9844 Q325.1875,693.0469 326.5313,693.0469 Q327.1563,693.0469 327.75,692.7813 Q328.3438,692.5 328.9688,691.9219 L328.9688,694.6406 Z "/><text fill="#000000" font-family="sans-serif" font-size="12" lengthAdjust="spacingAndGlyphs" textLength="51" x="343" y="693.1543">Sampler</text><line style="stroke: #A80036; stroke-width: 1.5;" x1="298.5" x2="409.5" y1="705" y2="705"/><ellipse cx="308.5" cy="716" fill="none" rx="3" ry="3" style="stroke: #038048; stroke-width: 1.0;"/><text fill="#000000" font-family="sans-serif" font-size="11" lengthAdjust="spacingAndGlyphs" textLength="85" x="317.5" y="719.2104">FilterType filter</text><ellipse cx="308.5" cy="728.8047" fill="none" rx="3" ry="3" style="stroke: #038048; stroke-width: 1.0;"/><text fill="#000000" font-family="sans-serif" font-size="11" lengthAdjust="spacingAndGlyphs" textLength="87" x="317.5" y="732.0151">WrapType wrap</text><ellipse cx="308.5" cy="741.6094" fill="none" rx="3" ry="3" style="stroke: #038048; stroke-width: 1.0;"/><text fill="#000000" font-family="sans-serif" font-size="11" lengthAdjust="spacingAndGlyphs" textLength="51" x="317.5" y="744.8198">bool vflip</text><ellipse cx="308.5" cy="754.4141" fill="none" rx="3" ry="3" style="stroke: #038048; stroke-width: 1.0;"/><text fill="#000000" font-family="sans-serif" font-size="11" lengthAdjust="spacingAndGlyphs" textLength="54" x="317.5" y="757.6245">bool srgb</text><ellipse cx="308.5" cy="767.2188" fill="none" rx="3" ry="3" style="stroke: #038048; stroke-width: 1.0;"/><text fill="#000000" font-family="sans-serif" font-size="11" lengthAdjust="spacingAndGlyphs" textLength="81" x="317.5" y="770.4292">String internal</text><!--MD5=[d5414fa6b3869297190d3cd56d6ad7a9]
class InputType--><rect fill="#FEFECE" filter="url(#fufeyifsuj5fn)" height="168.0469" id="InputType" style="stroke: #A80036; stroke-width: 1.5;" width="93" x="445.5" y="641"/><ellipse cx="460.5" cy="657" fill="#EB937F" rx="11" ry="11" style="stroke: #A80036; stroke-width: 1.0;"/><path d="M464.6094,663 L456.8906,663 L456.8906,650.6094 L464.6094,650.6094 L464.6094,652.7656 L459.3438,652.7656 L459.3438,655.4375 L464.1094,655.4375 L464.1094,657.5938 L459.3438,657.5938 L459.3438,660.8438 L464.6094,660.8438 L464.6094,663 Z "/><text fill="#000000" font-family="sans-serif" font-size="12" lengthAdjust="spacingAndGlyphs" textLength="61" x="474.5" y="661.1543">InputType</text><line style="stroke: #A80036; stroke-width: 1.5;" x1="446.5" x2="537.5" y1="673" y2="673"/><text fill="#000000" font-family="sans-serif" font-size="11" lengthAdjust="spacingAndGlyphs" textLength="40" x="451.5" y="687.2104">texture</text><text fill="#000000" font-family="sans-serif" font-size="11" lengthAdjust="spacingAndGlyphs" textLength="41" x="451.5" y="700.0151">volume</text><text fill="#000000" font-family="sans-serif" font-size="11" lengthAdjust="spacingAndGlyphs" textLength="52" x="451.5" y="712.8198">cubemap</text><text fill="#000000" font-family="sans-serif" font-size="11" lengthAdjust="spacingAndGlyphs" textLength="34" x="451.5" y="725.6245">music</text><text fill="#000000" font-family="sans-serif" font-size="11" lengthAdjust="spacingAndGlyphs" textLength="75" x="451.5" y="738.4292">musicstream</text><text fill="#000000" font-family="sans-serif" font-size="11" lengthAdjust="spacingAndGlyphs" textLength="20" x="451.5" y="751.2339">mic</text><text fill="#000000" font-family="sans-serif" font-size="11" lengthAdjust="spacingAndGlyphs" textLength="34" x="451.5" y="764.0386">buffer</text><text fill="#000000" font-family="sans-serif" font-size="11" lengthAdjust="spacingAndGlyphs" textLength="52" x="451.5" y="776.8433">keyboard</text><text fill="#000000" font-family="sans-serif" font-size="11" lengthAdjust="spacingAndGlyphs" textLength="30" x="451.5" y="789.6479">video</text><text fill="#000000" font-family="sans-serif" font-size="11" lengthAdjust="spacingAndGlyphs" textLength="47" x="451.5" y="802.4526">webcam</text><!--MD5=[3cab58e622330109321580dbb0b85605]
class Input--><rect fill="#FEFECE" filter="url(#fufeyifsuj5fn)" height="142.4375" id="Input" style="stroke: #A80036; stroke-width: 1.5;" width="152" x="347" y="439"/><ellipse cx="402.75" cy="455" fill="#ADD1B2" rx="11" ry="11" style="stroke: #A80036; stroke-width: 1.0;"/><path d="M405.7188,460.6406 Q405.1406,460.9375 404.5,461.0781 Q403.8594,461.2344 403.1563,461.2344 Q400.6563,461.2344 399.3281,459.5938 Q398.0156,457.9375 398.0156,454.8125 Q398.0156,451.6875 399.3281,450.0313 Q400.6563,448.375 403.1563,448.375 Q403.8594,448.375 404.5,448.5313 Q405.1563,448.6875 405.7188,448.9844 L405.7188,451.7031 Q405.0938,451.125 404.5,450.8594 Q403.9063,450.5781 403.2813,450.5781 Q401.9375,450.5781 401.25,451.6563 Q400.5625,452.7188 400.5625,454.8125 Q400.5625,456.9063 401.25,457.9844 Q401.9375,459.0469 403.2813,459.0469 Q403.9063,459.0469 404.5,458.7813 Q405.0938,458.5 405.7188,457.9219 L405.7188,460.6406 Z "/><text fill="#000000" font-family="sans-serif" font-size="12" lengthAdjust="spacingAndGlyphs" textLength="32" x="423.25" y="459.1543">Input</text><line style="stroke: #A80036; stroke-width: 1.5;" x1="348" x2="498" y1="471" y2="471"/><ellipse cx="358" cy="482" fill="none" rx="3" ry="3" style="stroke: #038048; stroke-width: 1.0;"/><text fill="#000000" font-family="sans-serif" font-size="11" lengthAdjust="spacingAndGlyphs" textLength="48" x="367" y="485.2104">String id</text><ellipse cx="358" cy="494.8047" fill="none" rx="3" ry="3" style="stroke: #038048; stroke-width: 1.0;"/><text fill="#000000" font-family="sans-serif" font-size="11" lengthAdjust="spacingAndGlyphs" textLength="56" x="367" y="498.0151">String src</text><ellipse cx="358" cy="507.6094" fill="none" rx="3" ry="3" style="stroke: #038048; stroke-width: 1.0;"/><text fill="#000000" font-family="sans-serif" font-size="11" lengthAdjust="spacingAndGlyphs" textLength="80" x="367" y="510.8198">String filePath</text><ellipse cx="358" cy="520.4141" fill="none" rx="3" ry="3" style="stroke: #038048; stroke-width: 1.0;"/><text fill="#000000" font-family="sans-serif" font-size="11" lengthAdjust="spacingAndGlyphs" textLength="126" x="367" y="523.6245">String previewFilePath</text><ellipse cx="358" cy="533.2188" fill="none" rx="3" ry="3" style="stroke: #038048; stroke-width: 1.0;"/><text fill="#000000" font-family="sans-serif" font-size="11" lengthAdjust="spacingAndGlyphs" textLength="83" x="367" y="536.4292">InputType type</text><ellipse cx="358" cy="546.0234" fill="none" rx="3" ry="3" style="stroke: #038048; stroke-width: 1.0;"/><text fill="#000000" font-family="sans-serif" font-size="11" lengthAdjust="spacingAndGlyphs" textLength="62" x="367" y="549.2339">int channel</text><ellipse cx="358" cy="558.8281" fill="none" rx="3" ry="3" style="stroke: #038048; stroke-width: 1.0;"/><text fill="#000000" font-family="sans-serif" font-size="11" lengthAdjust="spacingAndGlyphs" textLength="99" x="367" y="562.0386">Sampler sampler</text><ellipse cx="358" cy="571.6328" fill="none" rx="3" ry="3" style="stroke: #038048; stroke-width: 1.0;"/><text fill="#000000" font-family="sans-serif" font-size="11" lengthAdjust="spacingAndGlyphs" textLength="73" x="367" y="574.8433">int published</text><!--MD5=[847fc839c78cd68cdbea65b88e602834]
class Output--><rect fill="#FEFECE" filter="url(#fufeyifsuj5fn)" height="65.6094" id="Output" style="stroke: #A80036; stroke-width: 1.5;" width="88" x="534" y="477"/><ellipse cx="554.85" cy="493" fill="#ADD1B2" rx="11" ry="11" style="stroke: #A80036; stroke-width: 1.0;"/><path d="M557.8188,498.6406 Q557.2406,498.9375 556.6,499.0781 Q555.9594,499.2344 555.2563,499.2344 Q552.7563,499.2344 551.4281,497.5938 Q550.1156,495.9375 550.1156,492.8125 Q550.1156,489.6875 551.4281,488.0313 Q552.7563,486.375 555.2563,486.375 Q555.9594,486.375 556.6,486.5313 Q557.2563,486.6875 557.8188,486.9844 L557.8188,489.7031 Q557.1938,489.125 556.6,488.8594 Q556.0063,488.5781 555.3813,488.5781 Q554.0375,488.5781 553.35,489.6563 Q552.6625,490.7188 552.6625,492.8125 Q552.6625,494.9063 553.35,495.9844 Q554.0375,497.0469 555.3813,497.0469 Q556.0063,497.0469 556.6,496.7813 Q557.1938,496.5 557.8188,495.9219 L557.8188,498.6406 Z "/><text fill="#000000" font-family="sans-serif" font-size="12" lengthAdjust="spacingAndGlyphs" textLength="43" x="570.15" y="497.1543">Output</text><line style="stroke: #A80036; stroke-width: 1.5;" x1="535" x2="621" y1="509" y2="509"/><ellipse cx="545" cy="520" fill="none" rx="3" ry="3" style="stroke: #038048; stroke-width: 1.0;"/><text fill="#000000" font-family="sans-serif" font-size="11" lengthAdjust="spacingAndGlyphs" textLength="48" x="554" y="523.2104">String id</text><ellipse cx="545" cy="532.8047" fill="none" rx="3" ry="3" style="stroke: #038048; stroke-width: 1.0;"/><text fill="#000000" font-family="sans-serif" font-size="11" lengthAdjust="spacingAndGlyphs" textLength="62" x="554" y="536.0151">int channel</text><!--MD5=[e5a5830e1720fde2dd5bf575a16e759f]
class RenderPassType--><rect fill="#FEFECE" filter="url(#fufeyifsuj5fn)" height="104.0234" id="RenderPassType" style="stroke: #A80036; stroke-width: 1.5;" width="136" x="657" y="458"/><ellipse cx="672" cy="474" fill="#EB937F" rx="11" ry="11" style="stroke: #A80036; stroke-width: 1.0;"/><path d="M676.1094,480 L668.3906,480 L668.3906,467.6094 L676.1094,467.6094 L676.1094,469.7656 L670.8438,469.7656 L670.8438,472.4375 L675.6094,472.4375 L675.6094,474.5938 L670.8438,474.5938 L670.8438,477.8438 L676.1094,477.8438 L676.1094,480 Z "/><text fill="#000000" font-family="sans-serif" font-size="12" lengthAdjust="spacingAndGlyphs" textLength="104" x="686" y="478.1543">RenderPassType</text><line style="stroke: #A80036; stroke-width: 1.5;" x1="658" x2="792" y1="490" y2="490"/><text fill="#000000" font-family="sans-serif" font-size="11" lengthAdjust="spacingAndGlyphs" textLength="35" x="663" y="504.2104">sound</text><text fill="#000000" font-family="sans-serif" font-size="11" lengthAdjust="spacingAndGlyphs" textLength="49" x="663" y="517.0151">common</text><text fill="#000000" font-family="sans-serif" font-size="11" lengthAdjust="spacingAndGlyphs" textLength="35" x="663" y="529.8198">image</text><text fill="#000000" font-family="sans-serif" font-size="11" lengthAdjust="spacingAndGlyphs" textLength="34" x="663" y="542.6245">buffer</text><text fill="#000000" font-family="sans-serif" font-size="11" lengthAdjust="spacingAndGlyphs" textLength="52" x="663" y="555.4292">cubemap</text><!--MD5=[238882db1a9318ba3cb11d591dea3b78]
class RenderPass--><rect fill="#FEFECE" filter="url(#fufeyifsuj5fn)" height="116.8281" id="RenderPass" style="stroke: #A80036; stroke-width: 1.5;" width="149" x="432.5" y="230"/><ellipse cx="466.4" cy="246" fill="#ADD1B2" rx="11" ry="11" style="stroke: #A80036; stroke-width: 1.0;"/><path d="M469.3688,251.6406 Q468.7906,251.9375 468.15,252.0781 Q467.5094,252.2344 466.8063,252.2344 Q464.3063,252.2344 462.9781,250.5938 Q461.6656,248.9375 461.6656,245.8125 Q461.6656,242.6875 462.9781,241.0313 Q464.3063,239.375 466.8063,239.375 Q467.5094,239.375 468.15,239.5313 Q468.8063,239.6875 469.3688,239.9844 L469.3688,242.7031 Q468.7438,242.125 468.15,241.8594 Q467.5563,241.5781 466.9313,241.5781 Q465.5875,241.5781 464.9,242.6563 Q464.2125,243.7188 464.2125,245.8125 Q464.2125,247.9063 464.9,248.9844 Q465.5875,250.0469 466.9313,250.0469 Q467.5563,250.0469 468.15,249.7813 Q468.7438,249.5 469.3688,248.9219 L469.3688,251.6406 Z "/><text fill="#000000" font-family="sans-serif" font-size="12" lengthAdjust="spacingAndGlyphs" textLength="75" x="484.6" y="250.1543">RenderPass</text><line style="stroke: #A80036; stroke-width: 1.5;" x1="433.5" x2="580.5" y1="262" y2="262"/><ellipse cx="443.5" cy="273" fill="none" rx="3" ry="3" style="stroke: #038048; stroke-width: 1.0;"/><text fill="#000000" font-family="sans-serif" font-size="11" lengthAdjust="spacingAndGlyphs" textLength="70" x="452.5" y="276.2104">String name</text><ellipse cx="443.5" cy="285.8047" fill="none" rx="3" ry="3" style="stroke: #038048; stroke-width: 1.0;"/><text fill="#000000" font-family="sans-serif" font-size="11" lengthAdjust="spacingAndGlyphs" textLength="123" x="452.5" y="289.0151">RenderPassType type</text><ellipse cx="443.5" cy="298.6094" fill="none" rx="3" ry="3" style="stroke: #038048; stroke-width: 1.0;"/><text fill="#000000" font-family="sans-serif" font-size="11" lengthAdjust="spacingAndGlyphs" textLength="101" x="452.5" y="301.8198">String description</text><ellipse cx="443.5" cy="311.4141" fill="none" rx="3" ry="3" style="stroke: #038048; stroke-width: 1.0;"/><text fill="#000000" font-family="sans-serif" font-size="11" lengthAdjust="spacingAndGlyphs" textLength="65" x="452.5" y="314.6245">String code</text><ellipse cx="443.5" cy="324.2188" fill="none" rx="3" ry="3" style="stroke: #038048; stroke-width: 1.0;"/><text fill="#000000" font-family="sans-serif" font-size="11" lengthAdjust="spacingAndGlyphs" textLength="105" x="452.5" y="327.4292">List&lt;Input&gt; inputs</text><ellipse cx="443.5" cy="337.0234" fill="none" rx="3" ry="3" style="stroke: #038048; stroke-width: 1.0;"/><text fill="#000000" font-family="sans-serif" font-size="11" lengthAdjust="spacingAndGlyphs" textLength="123" x="452.5" y="340.2339">List&lt;Output&gt; outputs</text><!--MD5=[03b04ed89c1f7ac76f6e629bfb39a406]
class Shader--><rect fill="#FEFECE" filter="url(#fufeyifsuj5fn)" height="78.4141" id="Shader" style="stroke: #A80036; stroke-width: 1.5;" width="216" x="326" y="34"/><ellipse cx="407.25" cy="50" fill="#ADD1B2" rx="11" ry="11" style="stroke: #A80036; stroke-width: 1.0;"/><path d="M410.2188,55.6406 Q409.6406,55.9375 409,56.0781 Q408.3594,56.2344 407.6563,56.2344 Q405.1563,56.2344 403.8281,54.5938 Q402.5156,52.9375 402.5156,49.8125 Q402.5156,46.6875 403.8281,45.0313 Q405.1563,43.375 407.6563,43.375 Q408.3594,43.375 409,43.5313 Q409.6563,43.6875 410.2188,43.9844 L410.2188,46.7031 Q409.5938,46.125 409,45.8594 Q408.4063,45.5781 407.7813,45.5781 Q406.4375,45.5781 405.75,46.6563 Q405.0625,47.7188 405.0625,49.8125 Q405.0625,51.9063 405.75,52.9844 Q406.4375,54.0469 407.7813,54.0469 Q408.4063,54.0469 409,53.7813 Q409.5938,53.5 410.2188,52.9219 L410.2188,55.6406 Z "/><text fill="#000000" font-family="sans-serif" font-size="12" lengthAdjust="spacingAndGlyphs" textLength="45" x="427.75" y="54.1543">Shader</text><line style="stroke: #A80036; stroke-width: 1.5;" x1="327" x2="541" y1="66" y2="66"/><ellipse cx="337" cy="77" fill="none" rx="3" ry="3" style="stroke: #038048; stroke-width: 1.0;"/><text fill="#000000" font-family="sans-serif" font-size="11" lengthAdjust="spacingAndGlyphs" textLength="80" x="346" y="80.2104">String version</text><ellipse cx="337" cy="89.8047" fill="none" rx="3" ry="3" style="stroke: #038048; stroke-width: 1.0;"/><text fill="#000000" font-family="sans-serif" font-size="11" lengthAdjust="spacingAndGlyphs" textLength="46" x="346" y="93.0151">Info Info</text><ellipse cx="337" cy="102.6094" fill="none" rx="3" ry="3" style="stroke: #038048; stroke-width: 1.0;"/><text fill="#000000" font-family="sans-serif" font-size="11" lengthAdjust="spacingAndGlyphs" textLength="190" x="346" y="105.8198">List&lt;RenderPass&gt; renderPasses</text><!--MD5=[2ce409087c256806e794369f9639a134]
class Playlist--><rect fill="#FEFECE" filter="url(#fufeyifsuj5fn)" height="91.2188" id="Playlist" style="stroke: #A80036; stroke-width: 1.5;" width="127" x="160.5" y="27.5"/><ellipse cx="198.9" cy="43.5" fill="#ADD1B2" rx="11" ry="11" style="stroke: #A80036; stroke-width: 1.0;"/><path d="M201.8688,49.1406 Q201.2906,49.4375 200.65,49.5781 Q200.0094,49.7344 199.3063,49.7344 Q196.8063,49.7344 195.4781,48.0938 Q194.1656,46.4375 194.1656,43.3125 Q194.1656,40.1875 195.4781,38.5313 Q196.8063,36.875 199.3063,36.875 Q200.0094,36.875 200.65,37.0313 Q201.3063,37.1875 201.8688,37.4844 L201.8688,40.2031 Q201.2438,39.625 200.65,39.3594 Q200.0563,39.0781 199.4313,39.0781 Q198.0875,39.0781 197.4,40.1563 Q196.7125,41.2188 196.7125,43.3125 Q196.7125,45.4063 197.4,46.4844 Q198.0875,47.5469 199.4313,47.5469 Q200.0563,47.5469 200.65,47.2813 Q201.2438,47 201.8688,46.4219 L201.8688,49.1406 Z "/><text fill="#000000" font-family="sans-serif" font-size="12" lengthAdjust="spacingAndGlyphs" textLength="43" x="218.1" y="47.6543">Playlist</text><line style="stroke: #A80036; stroke-width: 1.5;" x1="161.5" x2="286.5" y1="59.5" y2="59.5"/><ellipse cx="171.5" cy="70.5" fill="none" rx="3" ry="3" style="stroke: #038048; stroke-width: 1.0;"/><text fill="#000000" font-family="sans-serif" font-size="11" lengthAdjust="spacingAndGlyphs" textLength="48" x="180.5" y="73.7104">String id</text><ellipse cx="171.5" cy="83.3047" fill="none" rx="3" ry="3" style="stroke: #038048; stroke-width: 1.0;"/><text fill="#000000" font-family="sans-serif" font-size="11" lengthAdjust="spacingAndGlyphs" textLength="74" x="180.5" y="86.5151">String userId</text><ellipse cx="171.5" cy="96.1094" fill="none" rx="3" ry="3" style="stroke: #038048; stroke-width: 1.0;"/><text fill="#000000" font-family="sans-serif" font-size="11" lengthAdjust="spacingAndGlyphs" textLength="70" x="180.5" y="99.3198">String name</text><ellipse cx="171.5" cy="108.9141" fill="none" rx="3" ry="3" style="stroke: #038048; stroke-width: 1.0;"/><text fill="#000000" font-family="sans-serif" font-size="11" lengthAdjust="spacingAndGlyphs" textLength="101" x="180.5" y="112.1245">String description</text><!--MD5=[279d4fab721081fe8028071c83eb16bd]
link Info to ShaderPrivacy--><path d="M252,379.1 C252,408.49 252,439.89 252,464.45 " fill="none" id="Info-ShaderPrivacy" style="stroke: #A80036; stroke-width: 1.0; stroke-dasharray: 7.0,7.0;"/><!--MD5=[e6c152588259b4f6ebf34b280c858812]
link Sampler to FilterType--><path d="M336.51,777.24 C326.74,805.86 314.68,841.19 305.29,868.71 " fill="none" id="Sampler-FilterType" style="stroke: #A80036; stroke-width: 1.0; stroke-dasharray: 7.0,7.0;"/><!--MD5=[fa07d61fb7493726bca773c5e9965c93]
link Sampler to WrapType--><path d="M371.49,777.24 C381.26,805.86 393.32,841.19 402.71,868.71 " fill="none" id="Sampler-WrapType" style="stroke: #A80036; stroke-width: 1.0; stroke-dasharray: 7.0,7.0;"/><!--MD5=[698a9c0837b0fead6b394295697c0722]
link Input to InputType--><path d="M445.69,581.04 C451.89,600.2 458.68,621.15 465.1,640.95 " fill="none" id="Input-InputType" style="stroke: #A80036; stroke-width: 1.0; stroke-dasharray: 7.0,7.0;"/><!--MD5=[54656a65a6b176d5f6a50ead8cca7705]
link RenderPass to RenderPassType--><path d="M564.28,347.17 C598.34,381.47 641.17,424.59 674.05,457.7 " fill="none" id="RenderPass-RenderPassType" style="stroke: #A80036; stroke-width: 1.0; stroke-dasharray: 7.0,7.0;"/><!--MD5=[8f19c8e5af5278cb995804fcff4b21af]
reverse link Shader to Info--><path d="M392.93,122.18 C373.65,144.8 350.04,172.49 327.7,198.7 " fill="none" id="Shader&lt;-Info" style="stroke: #A80036; stroke-width: 1.0;"/><polygon fill="#FFFFFF" points="401.46,112.17,394.5234,114.1406,393.6744,121.3015,400.6111,119.331,401.46,112.17" style="stroke: #A80036; stroke-width: 1.0;"/><text fill="#000000" font-family="sans-serif" font-size="13" lengthAdjust="spacingAndGlyphs" textLength="23" x="365.9841" y="132.5249">info</text><text fill="#000000" font-family="sans-serif" font-size="13" lengthAdjust="spacingAndGlyphs" textLength="8" x="335.0473" y="186.81">1</text><!--MD5=[caff0fb8dd27e7bce1db43d75c971a9b]
reverse link Shader to RenderPass--><path d="M451.33,124.68 C462.14,156.31 476.09,197.11 487.33,229.96 " fill="none" id="Shader&lt;-RenderPass" style="stroke: #A80036; stroke-width: 1.0;"/><polygon fill="#FFFFFF" points="447.05,112.17,445.2035,119.1407,450.9277,123.5262,452.7743,116.5555,447.05,112.17" style="stroke: #A80036; stroke-width: 1.0;"/><text fill="#000000" font-family="sans-serif" font-size="13" lengthAdjust="spacingAndGlyphs" textLength="87" x="478.9042" y="132.5249">renderPasses</text><text fill="#000000" font-family="sans-serif" font-size="13" lengthAdjust="spacingAndGlyphs" textLength="23" x="452.0437" y="218.9968">1..*</text><!--MD5=[b192379bd1989d5bbc4c6d9a7d1e3228]
reverse link RenderPass to Input--><path d="M480.27,359.34 C470.56,384.71 459.59,413.39 449.87,438.8 " fill="none" id="RenderPass&lt;-Input" style="stroke: #A80036; stroke-width: 1.0;"/><polygon fill="#FFFFFF" points="484.93,347.17,479.051,351.3458,480.6444,358.3786,486.5234,354.2029,484.93,347.17" style="stroke: #A80036; stroke-width: 1.0;"/><text fill="#000000" font-family="sans-serif" font-size="13" lengthAdjust="spacingAndGlyphs" textLength="39" x="432.661" y="366.9054">inputs</text><text fill="#000000" font-family="sans-serif" font-size="13" lengthAdjust="spacingAndGlyphs" textLength="23" x="428.455" y="427.7352">1..*</text><!--MD5=[e49e12051756ad7174cb4f3543a7a0ec]
reverse link RenderPass to Output--><path d="M529.69,359.64 C542.42,398.99 557.68,446.18 567.6,476.84 " fill="none" id="RenderPass&lt;-Output" style="stroke: #A80036; stroke-width: 1.0;"/><polygon fill="#FFFFFF" points="525.65,347.17,523.6922,354.1102,529.3456,358.5868,531.3034,351.6465,525.65,347.17" style="stroke: #A80036; stroke-width: 1.0;"/><text fill="#000000" font-family="sans-serif" font-size="13" lengthAdjust="spacingAndGlyphs" textLength="49" x="530.6392" y="366.9054">outputs</text><text fill="#000000" font-family="sans-serif" font-size="13" lengthAdjust="spacingAndGlyphs" textLength="23" x="540.2884" y="465.9535">1..*</text><!--MD5=[65c9f653de6ec396eae5b32b37f4e935]
reverse link Input to Sampler--><path d="M396.26,593.54 C387.61,620.25 378.27,649.07 370.58,672.82 " fill="none" id="Input&lt;-Sampler" style="stroke: #A80036; stroke-width: 1.0;"/><polygon fill="#FFFFFF" points="400.31,581.04,394.6519,585.5106,396.6025,592.4529,402.2605,587.9823,400.31,581.04" style="stroke: #A80036; stroke-width: 1.0;"/><text fill="#000000" font-family="sans-serif" font-size="13" lengthAdjust="spacingAndGlyphs" textLength="52" x="338.7658" y="601.6805">sampler</text><text fill="#000000" font-family="sans-serif" font-size="13" lengthAdjust="spacingAndGlyphs" textLength="8" x="364.2704" y="661.8747">1</text><!--MD5=[41c570bcc2d1df6f5d63710391dac55c]
link Info to User--><path d="M183.83,379.1 C165.25,403.52 145.63,429.31 128.8,451.43 " fill="none" id="Info-User" style="stroke: #A80036; stroke-width: 1.0;"/><!--MD5=[bae4ea4bf9c09909ed509b11f4a10ce1]
link Playlist to Info--><path d="M229.87,118.76 C232.88,141.74 236.67,170.6 240.25,197.92 " fill="none" id="Playlist-Info" style="stroke: #A80036; stroke-width: 1.0;"/><!--MD5=[03b83e5f34cd6aa5644f981585d82b91]
link Playlist to User--><path d="M197.12,118.68 C184.15,141.73 169.23,170.68 159,198 C126.94,283.63 105.5,387.85 94.28,451.27 " fill="none" id="Playlist-User" style="stroke: #A80036; stroke-width: 1.0;"/><!--MD5=[eefc92865afa0eb0479af9e237f1c4f7]
link Comment to Info--><path d="M119.71,138.06 C137.54,158.2 157.52,180.77 176.44,202.15 " fill="none" id="Comment-Info" style="stroke: #A80036; stroke-width: 1.0;"/><!--MD5=[6a06045152f20214b4760875fd259869]
link Comment to User--><path d="M66.25,138.19 C70.52,222.67 77.97,369.96 82.07,451.16 " fill="none" id="Comment-User" style="stroke: #A80036; stroke-width: 1.0;"/><!--MD5=[38cfe61b7b54c0042e9db8e4d6b3905e]
@startuml model

hide methods

class User {
 +String id
 +String picture
 +String memberSince
 +int following
 +int followers
 +String about
}

class Comment {
    +String id
    +String shaderId
    +String userId
    +String picture
    +DateTime date
    +String text
    +boolean hidden
}

enum ShaderPrivacy {
    private
    unlisted
    public
    public_api
}

class Info {
    +String id
    +DateTime date
    +int views 
    +String name
    +String userId
    +String description
    +int likes
    +ShaderPrivacy privacy
    +int flags
    +List<String> tags
    +bool hasLiked
}

enum FilterType {
    none
    nearest
    linear
    mipmap
}

enum WrapType {
    none
    clamp
    repeat
    mirror
}

class Sampler {
    +FilterType filter
    +WrapType wrap
    +bool vflip
    +bool srgb
    +String internal
}

enum InputType {
    texture
    volume
    cubemap
    music
    musicstream
    mic
    buffer
    keyboard
    video
    webcam
}

class Input {
    +String id
    +String src
    +String filePath
    +String previewFilePath
    +InputType type
    +int channel
    +Sampler sampler
    +int published
}

class Output {
    +String id
    +int channel
}

enum RenderPassType {
    sound
    common
    image
    buffer
    cubemap
}

class RenderPass {
    +String name
    +RenderPassType type
    +String description
    +String code
    +List<Input> inputs
    +List<Output> outputs

}

class Shader {
    +String version
    +Info Info
    +List<RenderPass> renderPasses
}

class Playlist {
    +String id
    +String userId
    +String name
    +String description
}

Info  .. ShaderPrivacy
Sampler .. FilterType
Sampler .. WrapType
Input .. InputType
RenderPass .. RenderPassType

Shader "             info" o- - "1" Info
Shader "     renderPasses" o- - "1..*  " RenderPass
RenderPass "inputs  " o- - "1..*" Input
RenderPass "outputs" o- - "1..*" Output
Input "sampler " o- - "1" Sampler

Info - - User
Playlist - - Info
Playlist - - User
Comment - - Info
Comment - - User

@enduml

PlantUML version 1.2020.02(Sun Mar 01 10:22:07 GMT 2020)
(GPL source distribution)
Java Runtime: OpenJDK Runtime Environment
JVM: OpenJDK 64-Bit Server VM
Java Version: 11.0.9+11-Ubuntu-0ubuntu1
Operating System: Linux
Default Encoding: ANSI_X3.4-1968
Language: en
Country: US
--></g></svg>